<svg width="646" height="615" viewBox="0 0 646 615" fill="none" xmlns="http://www.w3.org/2000/svg">
<g opacity="0.5" filter="url(#filter0_f_257206_165)">
<ellipse cx="184.13" cy="525.155" rx="62.7933" ry="4.64867" fill="url(#paint0_linear_257206_165)"/>
</g>
<path d="M74.426 216.959C73.0948 156.074 122.086 106 182.986 106C243.937 106 292.949 156.156 291.542 217.091L286.931 416.919C286.267 445.661 266.983 470.63 239.341 478.536L217.047 484.913C212.099 486.328 209.625 487.036 207.164 487.615C191.163 491.378 174.507 491.378 158.506 487.615C156.045 487.036 153.571 486.328 148.622 484.913L126.427 478.564C98.7335 470.643 79.4252 445.612 78.7956 416.815L74.426 216.959Z" fill="url(#paint1_linear_257206_165)"/>
<path opacity="0.6" d="M182.871 280.848C182.908 184.271 293.666 122.813 291.437 219.364L286.883 416.662C286.482 434.052 286.281 442.747 283.224 450.026C280.511 456.484 276.217 462.123 270.755 466.402C264.599 471.224 256.393 473.571 239.98 478.264L210.598 486.667C196.781 490.619 189.873 492.594 182.789 492.594L182.871 280.848Z" fill="url(#paint2_linear_257206_165)"/>
<g filter="url(#filter1_d_257206_165)">
<g filter="url(#filter2_ii_257206_165)">
<path d="M106.533 207.339C105.458 175.814 125.733 147.512 155.929 138.39L158.759 137.535C174.602 132.749 191.505 132.749 207.348 137.535L210.043 138.349C240.306 147.492 260.605 175.883 259.468 207.477L258.159 243.858C256.702 284.333 223.469 316.392 182.968 316.392C142.413 316.392 109.155 284.248 107.773 243.716L106.533 207.339Z" fill="url(#paint3_linear_257206_165)"/>
</g>
<g opacity="0.2" filter="url(#filter3_f_257206_165)">
<path d="M137.714 282.07C136.969 274.86 142.225 268.416 149.438 267.697L178.54 264.796C181.717 264.479 184.917 264.479 188.093 264.796L217.099 267.687C224.353 268.41 229.625 274.911 228.835 282.159C227.657 292.958 218.536 301.138 207.673 301.138H158.854C147.962 301.138 138.833 292.904 137.714 282.07Z" fill="url(#paint4_linear_257206_165)"/>
</g>
</g>
<g filter="url(#filter4_dd_257206_165)">
<path d="M190.121 288.847C190.121 290.559 187.164 291.947 183.516 291.947C179.868 291.947 176.91 290.559 176.91 288.847C176.91 287.136 179.868 285.748 183.516 285.748C187.164 285.748 190.121 287.136 190.121 288.847Z" fill="url(#paint5_linear_257206_165)"/>
</g>
<g filter="url(#filter5_dd_257206_165)">
<ellipse cx="139.529" cy="212.774" rx="18.4649" ry="18.4093" fill="url(#paint6_linear_257206_165)"/>
</g>
<ellipse cx="139.53" cy="239.861" rx="8.44108" ry="4.47082" fill="url(#paint7_linear_257206_165)"/>
<path d="M135.377 166.471C136.568 160.956 141.446 157.02 147.088 157.02C147.866 157.02 148.498 157.651 148.498 158.43V182.962C148.498 187.517 144.805 191.209 140.251 191.209C134.995 191.209 131.081 186.358 132.19 181.221L135.377 166.471Z" fill="url(#paint8_linear_257206_165)"/>
<path d="M134.652 275.89C135.639 281.955 140.878 286.411 147.023 286.411C147.837 286.411 148.498 285.751 148.498 284.936V255.975C148.498 251.288 144.698 247.488 140.011 247.488C134.78 247.488 130.795 252.175 131.635 257.337L134.652 275.89Z" fill="url(#paint9_linear_257206_165)"/>
<g filter="url(#filter6_dd_257206_165)">
<ellipse cx="18.4649" cy="18.4093" rx="18.4649" ry="18.4093" transform="matrix(-1 0 0 1 243.987 194.365)" fill="url(#paint10_linear_257206_165)"/>
</g>
<ellipse cx="8.44108" cy="4.47082" rx="8.44108" ry="4.47082" transform="matrix(-1 0 0 1 233.964 235.391)" fill="url(#paint11_linear_257206_165)"/>
<path d="M229.675 166.471C228.483 160.956 223.606 157.02 217.963 157.02C217.185 157.02 216.554 157.651 216.554 158.43V182.962C216.554 187.517 220.246 191.209 224.8 191.209C230.056 191.209 233.971 186.358 232.861 181.221L229.675 166.471Z" fill="url(#paint12_linear_257206_165)"/>
<path d="M230.399 275.89C229.413 281.955 224.174 286.411 218.028 286.411C217.214 286.411 216.554 285.751 216.554 284.936V255.975C216.554 251.288 220.353 247.488 225.04 247.488C230.271 247.488 234.257 252.175 233.417 257.337L230.399 275.89Z" fill="url(#paint13_linear_257206_165)"/>
<path d="M298.569 327.829C328.805 327.829 325.11 300.58 325.11 300.58H361.728C361.728 323.445 351.903 354.166 302.601 349.754C280.407 347.768 270.761 332.504 271.129 315.868C271.2 312.647 273.999 310.29 277.221 310.29C279.038 310.29 280.575 311.673 281.043 313.429C282.388 318.475 286.507 327.829 298.569 327.829Z" fill="url(#paint14_linear_257206_165)"/>
<path d="M306.258 200.239C305.102 148.673 347.704 108.598 399.283 108.598C446.652 108.598 487.303 142.502 500.062 188.119C512.35 232.05 530.984 288.141 557.012 340.279C581.979 390.292 552.57 471.346 497.102 478.267L452.266 483.861C434.189 486.117 415.835 483.643 399 476.682L384.84 470.826C373.399 466.095 362.926 459.008 356.251 448.58C317.918 388.702 308.02 278.874 306.258 200.239Z" fill="url(#paint15_linear_257206_165)"/>
<g opacity="0.5" filter="url(#filter7_f_257206_165)">
<ellipse cx="486.689" cy="525.155" rx="64.1123" ry="4.64867" fill="url(#paint16_linear_257206_165)"/>
</g>
<path d="M394.587 348.869C424.822 348.869 421.127 321.619 421.127 321.619H457.746C457.746 344.484 447.921 375.205 398.619 370.793C376.425 368.807 366.779 353.543 367.147 336.907C367.218 333.686 370.017 331.329 373.239 331.329C375.056 331.329 376.593 332.712 377.061 334.468C378.406 339.514 382.525 348.869 394.587 348.869Z" fill="url(#paint17_linear_257206_165)"/>
<g filter="url(#filter8_d_257206_165)">
<g filter="url(#filter9_ii_257206_165)">
<path d="M318.691 201.72C317.34 180.293 326.587 159.566 343.434 146.258C365.193 129.068 394.657 125.279 420.058 136.404L422.416 137.437C450.634 149.796 467.279 179.325 463.243 209.864L457.307 254.777C452.829 288.666 423.935 313.993 389.751 313.993C353.781 313.993 324.005 286.035 321.742 250.135L318.691 201.72Z" fill="url(#paint18_linear_257206_165)"/>
</g>
<g opacity="0.12" filter="url(#filter10_f_257206_165)">
<path d="M322.646 259.831C321.877 248.994 329.601 239.402 340.352 237.84L364.257 234.369C369.345 233.63 374.513 233.63 379.601 234.369L403.408 237.826C414.202 239.394 421.944 249.047 421.129 259.924C419.812 277.513 405.157 291.113 387.519 291.113H356.225C338.557 291.113 323.896 277.454 322.646 259.831Z" fill="url(#paint19_linear_257206_165)"/>
</g>
<g filter="url(#filter11_dd_257206_165)">
<rect x="361.377" y="260.606" width="10.5514" height="26.2989" rx="5.27568" fill="url(#paint20_linear_257206_165)"/>
</g>
</g>
<g filter="url(#filter12_dd_257206_165)">
<ellipse cx="340.804" cy="212.479" rx="16.3546" ry="16.0424" fill="url(#paint21_linear_257206_165)"/>
</g>
<ellipse cx="340.804" cy="236.148" rx="7.38595" ry="3.94484" fill="url(#paint22_linear_257206_165)"/>
<path d="M337.08 171.665C338.145 166.782 342.469 163.3 347.467 163.3C348.158 163.3 348.718 163.86 348.718 164.551V185.985C348.718 190.014 345.451 193.281 341.422 193.281C336.766 193.281 333.302 188.979 334.294 184.43L337.08 171.665Z" fill="url(#paint23_linear_257206_165)"/>
<path d="M336.443 268.122C337.324 273.494 341.966 277.437 347.41 277.437C348.132 277.437 348.718 276.852 348.718 276.13V250.76C348.718 246.612 345.355 243.249 341.206 243.249C336.573 243.249 333.044 247.403 333.794 251.975L336.443 268.122Z" fill="url(#paint24_linear_257206_165)"/>
<g filter="url(#filter13_dd_257206_165)">
<ellipse cx="17.6381" cy="17.585" rx="17.6381" ry="17.585" transform="matrix(-1 -8.71595e-08 -8.76869e-08 1 422.195 195.25)" fill="url(#paint25_linear_257206_165)"/>
</g>
<ellipse cx="8.06312" cy="4.27063" rx="8.06312" ry="4.27063" transform="matrix(-1 -8.71595e-08 -8.76869e-08 1 412.62 234.44)" fill="url(#paint26_linear_257206_165)"/>
<path d="M408.523 168.606C407.385 163.338 402.725 159.578 397.336 159.578C396.592 159.578 395.989 160.181 395.989 160.925L395.989 184.359C395.989 188.709 399.516 192.236 403.867 192.236C408.887 192.236 412.627 187.602 411.566 182.695L408.523 168.606Z" fill="url(#paint27_linear_257206_165)"/>
<path d="M409.215 273.125C408.272 278.919 403.268 283.175 397.398 283.175C396.62 283.175 395.989 282.545 395.989 281.767L395.989 254.102C395.989 249.625 399.619 245.996 404.096 245.996C409.092 245.996 412.899 250.472 412.097 255.404L409.215 273.125Z" fill="url(#paint28_linear_257206_165)"/>
<defs>
<filter id="filter0_f_257206_165" x="36.3321" y="435.501" width="295.597" height="179.307" filterUnits="userSpaceOnUse" color-interpolation-filters="sRGB">
<feFlood flood-opacity="0" result="BackgroundImageFix"/>
<feBlend mode="normal" in="SourceGraphic" in2="BackgroundImageFix" result="shape"/>
<feGaussianBlur stdDeviation="42.5025" result="effect1_foregroundBlur_257206_165"/>
</filter>
<filter id="filter1_d_257206_165" x="0.231277" y="12.8077" width="365.543" height="394.968" filterUnits="userSpaceOnUse" color-interpolation-filters="sRGB">
<feFlood flood-opacity="0" result="BackgroundImageFix"/>
<feColorMatrix in="SourceAlpha" type="matrix" values="0 0 0 0 0 0 0 0 0 0 0 0 0 0 0 0 0 0 127 0" result="hardAlpha"/>
<feOffset dy="-14.8765"/>
<feGaussianBlur stdDeviation="53.1304"/>
<feColorMatrix type="matrix" values="0 0 0 0 1 0 0 0 0 0.820833 0 0 0 0 0.992833 0 0 0 0.37 0"/>
<feBlend mode="normal" in2="BackgroundImageFix" result="effect1_dropShadow_257206_165"/>
<feBlend mode="normal" in="SourceGraphic" in2="effect1_dropShadow_257206_165" result="shape"/>
</filter>
<filter id="filter2_ii_257206_165" x="69.3008" y="121.194" width="190.213" height="195.198" filterUnits="userSpaceOnUse" color-interpolation-filters="sRGB">
<feFlood flood-opacity="0" result="BackgroundImageFix"/>
<feBlend mode="normal" in="SourceGraphic" in2="BackgroundImageFix" result="shape"/>
<feColorMatrix in="SourceAlpha" type="matrix" values="0 0 0 0 0 0 0 0 0 0 0 0 0 0 0 0 0 0 127 0" result="hardAlpha"/>
<feOffset dy="-9.56348"/>
<feGaussianBlur stdDeviation="9.56348"/>
<feComposite in2="hardAlpha" operator="arithmetic" k2="-1" k3="1"/>
<feColorMatrix type="matrix" values="0 0 0 0 0.379167 0 0 0 0 0.102691 0 0 0 0 0.351519 0 0 0 0.31 0"/>
<feBlend mode="normal" in2="shape" result="effect1_innerShadow_257206_165"/>
<feColorMatrix in="SourceAlpha" type="matrix" values="0 0 0 0 0 0 0 0 0 0 0 0 0 0 0 0 0 0 127 0" result="hardAlpha"/>
<feOffset dx="-37.1913" dy="-12.7513"/>
<feGaussianBlur stdDeviation="42.5043"/>
<feComposite in2="hardAlpha" operator="arithmetic" k2="-1" k3="1"/>
<feColorMatrix type="matrix" values="0 0 0 0 0.356342 0 0 0 0 0.165208 0 0 0 0 0.7625 0 0 0 0.28 0"/>
<feBlend mode="normal" in2="effect1_innerShadow_257206_165" result="effect2_innerShadow_257206_165"/>
</filter>
<filter id="filter3_f_257206_165" x="55.8738" y="182.789" width="254.809" height="200.119" filterUnits="userSpaceOnUse" color-interpolation-filters="sRGB">
<feFlood flood-opacity="0" result="BackgroundImageFix"/>
<feBlend mode="normal" in="SourceGraphic" in2="BackgroundImageFix" result="shape"/>
<feGaussianBlur stdDeviation="40.8848" result="effect1_foregroundBlur_257206_165"/>
</filter>
<filter id="filter4_dd_257206_165" x="165.222" y="276.859" width="36.5884" height="33.1514" filterUnits="userSpaceOnUse" color-interpolation-filters="sRGB">
<feFlood flood-opacity="0" result="BackgroundImageFix"/>
<feColorMatrix in="SourceAlpha" type="matrix" values="0 0 0 0 0 0 0 0 0 0 0 0 0 0 0 0 0 0 127 0" result="hardAlpha"/>
<feOffset dy="6.37565"/>
<feGaussianBlur stdDeviation="5.84435"/>
<feColorMatrix type="matrix" values="0 0 0 0 0.599108 0 0 0 0 0.279792 0 0 0 0 0.85 0 0 0 0.35 0"/>
<feBlend mode="normal" in2="BackgroundImageFix" result="effect1_dropShadow_257206_165"/>
<feColorMatrix in="SourceAlpha" type="matrix" values="0 0 0 0 0 0 0 0 0 0 0 0 0 0 0 0 0 0 127 0" result="hardAlpha"/>
<feOffset dx="-2.12522" dy="-1.06261"/>
<feGaussianBlur stdDeviation="3.91311"/>
<feColorMatrix type="matrix" values="0 0 0 0 1 0 0 0 0 1 0 0 0 0 1 0 0 0 0.2 0"/>
<feBlend mode="normal" in2="effect1_dropShadow_257206_165" result="effect2_dropShadow_257206_165"/>
<feBlend mode="normal" in="SourceGraphic" in2="effect2_dropShadow_257206_165" result="shape"/>
</filter>
<filter id="filter5_dd_257206_165" x="113.626" y="190.114" width="51.8063" height="55.9456" filterUnits="userSpaceOnUse" color-interpolation-filters="sRGB">
<feFlood flood-opacity="0" result="BackgroundImageFix"/>
<feColorMatrix in="SourceAlpha" type="matrix" values="0 0 0 0 0 0 0 0 0 0 0 0 0 0 0 0 0 0 127 0" result="hardAlpha"/>
<feOffset dy="7.43826"/>
<feGaussianBlur stdDeviation="3.71913"/>
<feColorMatrix type="matrix" values="0 0 0 0 0.603458 0 0 0 0 0.390104 0 0 0 0 0.875 0 0 0 0.32 0"/>
<feBlend mode="normal" in2="BackgroundImageFix" result="effect1_dropShadow_257206_165"/>
<feColorMatrix in="SourceAlpha" type="matrix" values="0 0 0 0 0 0 0 0 0 0 0 0 0 0 0 0 0 0 127 0" result="hardAlpha"/>
<feOffset dx="-2.12522" dy="-2.12522"/>
<feGaussianBlur stdDeviation="1.06261"/>
<feColorMatrix type="matrix" values="0 0 0 0 1 0 0 0 0 1 0 0 0 0 1 0 0 0 0.4 0"/>
<feBlend mode="normal" in2="effect1_dropShadow_257206_165" result="effect2_dropShadow_257206_165"/>
<feBlend mode="normal" in="SourceGraphic" in2="effect2_dropShadow_257206_165" result="shape"/>
</filter>
<filter id="filter6_dd_257206_165" x="199.619" y="190.114" width="51.8063" height="55.9456" filterUnits="userSpaceOnUse" color-interpolation-filters="sRGB">
<feFlood flood-opacity="0" result="BackgroundImageFix"/>
<feColorMatrix in="SourceAlpha" type="matrix" values="0 0 0 0 0 0 0 0 0 0 0 0 0 0 0 0 0 0 127 0" result="hardAlpha"/>
<feOffset dy="7.43826"/>
<feGaussianBlur stdDeviation="3.71913"/>
<feColorMatrix type="matrix" values="0 0 0 0 0.603458 0 0 0 0 0.390104 0 0 0 0 0.875 0 0 0 0.32 0"/>
<feBlend mode="normal" in2="BackgroundImageFix" result="effect1_dropShadow_257206_165"/>
<feColorMatrix in="SourceAlpha" type="matrix" values="0 0 0 0 0 0 0 0 0 0 0 0 0 0 0 0 0 0 127 0" result="hardAlpha"/>
<feOffset dx="-2.12522" dy="-2.12522"/>
<feGaussianBlur stdDeviation="1.06261"/>
<feColorMatrix type="matrix" values="0 0 0 0 1 0 0 0 0 1 0 0 0 0 1 0 0 0 0.4 0"/>
<feBlend mode="normal" in2="effect1_dropShadow_257206_165" result="effect2_dropShadow_257206_165"/>
<feBlend mode="normal" in="SourceGraphic" in2="effect2_dropShadow_257206_165" result="shape"/>
</filter>
<filter id="filter7_f_257206_165" x="337.572" y="435.501" width="298.235" height="179.307" filterUnits="userSpaceOnUse" color-interpolation-filters="sRGB">
<feFlood flood-opacity="0" result="BackgroundImageFix"/>
<feBlend mode="normal" in="SourceGraphic" in2="BackgroundImageFix" result="shape"/>
<feGaussianBlur stdDeviation="42.5025" result="effect1_foregroundBlur_257206_165"/>
</filter>
<filter id="filter8_d_257206_165" x="210.175" y="0.461384" width="362.053" height="400.665" filterUnits="userSpaceOnUse" color-interpolation-filters="sRGB">
<feFlood flood-opacity="0" result="BackgroundImageFix"/>
<feColorMatrix in="SourceAlpha" type="matrix" values="0 0 0 0 0 0 0 0 0 0 0 0 0 0 0 0 0 0 127 0" result="hardAlpha"/>
<feOffset dy="-21.2522"/>
<feGaussianBlur stdDeviation="54.193"/>
<feColorMatrix type="matrix" values="0 0 0 0 1 0 0 0 0 0.820833 0 0 0 0 0.992833 0 0 0 0.35 0"/>
<feBlend mode="normal" in2="BackgroundImageFix" result="effect1_dropShadow_257206_165"/>
<feBlend mode="normal" in="SourceGraphic" in2="effect1_dropShadow_257206_165" result="shape"/>
</filter>
<filter id="filter9_ii_257206_165" x="271.806" y="120.536" width="192.036" height="208.333" filterUnits="userSpaceOnUse" color-interpolation-filters="sRGB">
<feFlood flood-opacity="0" result="BackgroundImageFix"/>
<feBlend mode="normal" in="SourceGraphic" in2="BackgroundImageFix" result="shape"/>
<feColorMatrix in="SourceAlpha" type="matrix" values="0 0 0 0 0 0 0 0 0 0 0 0 0 0 0 0 0 0 127 0" result="hardAlpha"/>
<feOffset dy="-9.56348"/>
<feGaussianBlur stdDeviation="9.56348"/>
<feComposite in2="hardAlpha" operator="arithmetic" k2="-1" k3="1"/>
<feColorMatrix type="matrix" values="0 0 0 0 0.379167 0 0 0 0 0.102691 0 0 0 0 0.351519 0 0 0 0.31 0"/>
<feBlend mode="normal" in2="shape" result="effect1_innerShadow_257206_165"/>
<feColorMatrix in="SourceAlpha" type="matrix" values="0 0 0 0 0 0 0 0 0 0 0 0 0 0 0 0 0 0 127 0" result="hardAlpha"/>
<feOffset dx="-46.7548" dy="14.8765"/>
<feGaussianBlur stdDeviation="42.5043"/>
<feComposite in2="hardAlpha" operator="arithmetic" k2="-1" k3="1"/>
<feColorMatrix type="matrix" values="0 0 0 0 0.291279 0 0 0 0 0.061684 0 0 0 0 0.779167 0 0 0 0.28 0"/>
<feBlend mode="normal" in2="effect1_innerShadow_257206_165" result="effect2_innerShadow_257206_165"/>
</filter>
<filter id="filter10_f_257206_165" x="240.824" y="152.045" width="262.134" height="220.837" filterUnits="userSpaceOnUse" color-interpolation-filters="sRGB">
<feFlood flood-opacity="0" result="BackgroundImageFix"/>
<feBlend mode="normal" in="SourceGraphic" in2="BackgroundImageFix" result="shape"/>
<feGaussianBlur stdDeviation="40.8848" result="effect1_foregroundBlur_257206_165"/>
</filter>
<filter id="filter11_dd_257206_165" x="349.689" y="251.717" width="33.9287" height="53.252" filterUnits="userSpaceOnUse" color-interpolation-filters="sRGB">
<feFlood flood-opacity="0" result="BackgroundImageFix"/>
<feColorMatrix in="SourceAlpha" type="matrix" values="0 0 0 0 0 0 0 0 0 0 0 0 0 0 0 0 0 0 127 0" result="hardAlpha"/>
<feOffset dy="6.37565"/>
<feGaussianBlur stdDeviation="5.84435"/>
<feColorMatrix type="matrix" values="0 0 0 0 0.599108 0 0 0 0 0.279792 0 0 0 0 0.85 0 0 0 0.35 0"/>
<feBlend mode="normal" in2="BackgroundImageFix" result="effect1_dropShadow_257206_165"/>
<feColorMatrix in="SourceAlpha" type="matrix" values="0 0 0 0 0 0 0 0 0 0 0 0 0 0 0 0 0 0 127 0" result="hardAlpha"/>
<feOffset dx="-2.12522" dy="-1.06261"/>
<feGaussianBlur stdDeviation="3.91311"/>
<feColorMatrix type="matrix" values="0 0 0 0 1 0 0 0 0 1 0 0 0 0 1 0 0 0 0.2 0"/>
<feBlend mode="normal" in2="effect1_dropShadow_257206_165" result="effect2_dropShadow_257206_165"/>
<feBlend mode="normal" in="SourceGraphic" in2="effect2_dropShadow_257206_165" result="shape"/>
</filter>
<filter id="filter12_dd_257206_165" x="312.031" y="190.156" width="50.3453" height="52.5756" filterUnits="userSpaceOnUse" color-interpolation-filters="sRGB">
<feFlood flood-opacity="0" result="BackgroundImageFix"/>
<feColorMatrix in="SourceAlpha" type="matrix" values="0 0 0 0 0 0 0 0 0 0 0 0 0 0 0 0 0 0 127 0" result="hardAlpha"/>
<feOffset dx="-5.31304" dy="7.1052"/>
<feGaussianBlur stdDeviation="3.5526"/>
<feColorMatrix type="matrix" values="0 0 0 0 0.603458 0 0 0 0 0.390104 0 0 0 0 0.875 0 0 0 0.32 0"/>
<feBlend mode="normal" in2="BackgroundImageFix" result="effect1_dropShadow_257206_165"/>
<feColorMatrix in="SourceAlpha" type="matrix" values="0 0 0 0 0 0 0 0 0 0 0 0 0 0 0 0 0 0 127 0" result="hardAlpha"/>
<feOffset dx="3.18783" dy="-4.25043"/>
<feGaussianBlur stdDeviation="1.01503"/>
<feColorMatrix type="matrix" values="0 0 0 0 1 0 0 0 0 1 0 0 0 0 1 0 0 0 0.4 0"/>
<feBlend mode="normal" in2="effect1_dropShadow_257206_165" result="effect2_dropShadow_257206_165"/>
<feBlend mode="normal" in="SourceGraphic" in2="effect2_dropShadow_257206_165" result="shape"/>
</filter>
<filter id="filter13_dd_257206_165" x="375.564" y="191.19" width="50.7871" height="53.7735" filterUnits="userSpaceOnUse" color-interpolation-filters="sRGB">
<feFlood flood-opacity="0" result="BackgroundImageFix"/>
<feColorMatrix in="SourceAlpha" type="matrix" values="0 0 0 0 0 0 0 0 0 0 0 0 0 0 0 0 0 0 127 0" result="hardAlpha"/>
<feOffset dx="-4.25043" dy="7.43826"/>
<feGaussianBlur stdDeviation="3.5526"/>
<feColorMatrix type="matrix" values="0 0 0 0 0.603458 0 0 0 0 0.390104 0 0 0 0 0.875 0 0 0 0.32 0"/>
<feBlend mode="normal" in2="BackgroundImageFix" result="effect1_dropShadow_257206_165"/>
<feColorMatrix in="SourceAlpha" type="matrix" values="0 0 0 0 0 0 0 0 0 0 0 0 0 0 0 0 0 0 127 0" result="hardAlpha"/>
<feOffset dx="2.12522" dy="-2.03006"/>
<feGaussianBlur stdDeviation="1.01503"/>
<feColorMatrix type="matrix" values="0 0 0 0 1 0 0 0 0 1 0 0 0 0 1 0 0 0 0.4 0"/>
<feBlend mode="normal" in2="effect1_dropShadow_257206_165" result="effect2_dropShadow_257206_165"/>
<feBlend mode="normal" in="SourceGraphic" in2="effect2_dropShadow_257206_165" result="shape"/>
</filter>
<linearGradient id="paint0_linear_257206_165" x1="184.13" y1="520.506" x2="184.13" y2="529.804" gradientUnits="userSpaceOnUse">
<stop/>
<stop offset="1" stop-color="#151433" stop-opacity="0.87"/>
<stop offset="1" stop-color="#251F27" stop-opacity="0.87"/>
</linearGradient>
<linearGradient id="paint1_linear_257206_165" x1="183.053" y1="133.877" x2="183.321" y2="529.15" gradientUnits="userSpaceOnUse">
<stop stop-color="#0D0038"/>
<stop offset="1" stop-opacity="0"/>
</linearGradient>
<linearGradient id="paint2_linear_257206_165" x1="245.616" y1="185.144" x2="90.337" y2="321.365" gradientUnits="userSpaceOnUse">
<stop stop-color="#0D0038" stop-opacity="0.64"/>
<stop offset="1" stop-opacity="0"/>
</linearGradient>
<linearGradient id="paint3_linear_257206_165" x1="183.054" y1="130.195" x2="183.054" y2="316.392" gradientUnits="userSpaceOnUse">
<stop stop-color="white"/>
<stop offset="0.0698237" stop-color="#F4F0F4" stop-opacity="0.990923"/>
<stop offset="0.942282" stop-color="#C7C5FE" stop-opacity="0.77"/>
<stop offset="1" stop-color="#C4C2FF" stop-opacity="0.81"/>
</linearGradient>
<linearGradient id="paint4_linear_257206_165" x1="183.317" y1="264.32" x2="183.317" y2="301.138" gradientUnits="userSpaceOnUse">
<stop stop-color="#5B225C"/>
<stop offset="1" stop-color="#151433" stop-opacity="0.87"/>
<stop offset="1" stop-color="#59266B" stop-opacity="0.87"/>
</linearGradient>
<linearGradient id="paint5_linear_257206_165" x1="185.106" y1="283.316" x2="185.108" y2="292.771" gradientUnits="userSpaceOnUse">
<stop stop-color="#261953"/>
<stop offset="1" stop-color="#11082F"/>
</linearGradient>
<linearGradient id="paint6_linear_257206_165" x1="139.529" y1="197.005" x2="139.544" y2="234.447" gradientUnits="userSpaceOnUse">
<stop stop-color="#2E1E65"/>
<stop offset="1" stop-color="#11082F"/>
</linearGradient>
<linearGradient id="paint7_linear_257206_165" x1="154.038" y1="235.391" x2="124.441" y2="246.724" gradientUnits="userSpaceOnUse">
<stop stop-color="#FE4A23" stop-opacity="0.35"/>
<stop offset="1" stop-color="#FA43B0" stop-opacity="0"/>
</linearGradient>
<linearGradient id="paint8_linear_257206_165" x1="139.265" y1="157.02" x2="139.017" y2="197.677" gradientUnits="userSpaceOnUse">
<stop stop-color="#FE4A23" stop-opacity="0.42"/>
<stop offset="1" stop-color="#FA43B0" stop-opacity="0.38"/>
</linearGradient>
<linearGradient id="paint9_linear_257206_165" x1="139.265" y1="286.411" x2="138.943" y2="240.126" gradientUnits="userSpaceOnUse">
<stop stop-color="#FE4A23" stop-opacity="0.17"/>
<stop offset="1" stop-color="#FA43B0" stop-opacity="0.48"/>
</linearGradient>
<linearGradient id="paint10_linear_257206_165" x1="18.4649" y1="2.64057" x2="18.4794" y2="40.0819" gradientUnits="userSpaceOnUse">
<stop stop-color="#2E1E65"/>
<stop offset="1" stop-color="#11082F"/>
</linearGradient>
<linearGradient id="paint11_linear_257206_165" x1="22.9492" y1="-7.97932e-07" x2="-6.6473" y2="11.3338" gradientUnits="userSpaceOnUse">
<stop stop-color="#FE4A23" stop-opacity="0.35"/>
<stop offset="1" stop-color="#FA43B0" stop-opacity="0"/>
</linearGradient>
<linearGradient id="paint12_linear_257206_165" x1="225.786" y1="157.02" x2="226.035" y2="197.677" gradientUnits="userSpaceOnUse">
<stop stop-color="#FE4A23" stop-opacity="0.42"/>
<stop offset="1" stop-color="#FA43B0" stop-opacity="0.38"/>
</linearGradient>
<linearGradient id="paint13_linear_257206_165" x1="225.786" y1="286.411" x2="226.108" y2="240.126" gradientUnits="userSpaceOnUse">
<stop stop-color="#FE4A23" stop-opacity="0.17"/>
<stop offset="1" stop-color="#FA43B0" stop-opacity="0.48"/>
</linearGradient>
<linearGradient id="paint14_linear_257206_165" x1="296.025" y1="318.726" x2="323.384" y2="318.726" gradientUnits="userSpaceOnUse">
<stop stop-color="#0D0038" stop-opacity="0.37"/>
<stop offset="1" stop-opacity="0"/>
</linearGradient>
<linearGradient id="paint15_linear_257206_165" x1="421.257" y1="136.475" x2="413.437" y2="541.645" gradientUnits="userSpaceOnUse">
<stop stop-color="#0D0038"/>
<stop offset="1" stop-opacity="0"/>
</linearGradient>
<linearGradient id="paint16_linear_257206_165" x1="486.689" y1="520.506" x2="486.689" y2="529.804" gradientUnits="userSpaceOnUse">
<stop/>
<stop offset="1" stop-color="#151433" stop-opacity="0.87"/>
<stop offset="1" stop-color="#251F27" stop-opacity="0.87"/>
</linearGradient>
<linearGradient id="paint17_linear_257206_165" x1="375.541" y1="346.206" x2="429.448" y2="321.265" gradientUnits="userSpaceOnUse">
<stop stop-color="#0D0038" stop-opacity="0.37"/>
<stop offset="0.626611" stop-color="#050015" stop-opacity="0.08"/>
<stop offset="1" stop-opacity="0"/>
</linearGradient>
<linearGradient id="paint18_linear_257206_165" x1="393.296" y1="118.329" x2="393.296" y2="313.993" gradientUnits="userSpaceOnUse">
<stop stop-color="white"/>
<stop offset="0.0698237" stop-color="#F4F0F4" stop-opacity="0.990923"/>
<stop offset="0.942282" stop-color="#C7C5FE" stop-opacity="0.77"/>
<stop offset="1" stop-color="#C4C2FF" stop-opacity="0.81"/>
</linearGradient>
<linearGradient id="paint19_linear_257206_165" x1="371.929" y1="233.255" x2="371.929" y2="291.113" gradientUnits="userSpaceOnUse">
<stop stop-color="#5B225C"/>
<stop offset="1" stop-color="#151433" stop-opacity="0.87"/>
<stop offset="1" stop-color="#59266B" stop-opacity="0.87"/>
</linearGradient>
<linearGradient id="paint20_linear_257206_165" x1="366.653" y1="262.492" x2="366.679" y2="289.236" gradientUnits="userSpaceOnUse">
<stop stop-color="#261953"/>
<stop offset="1" stop-color="#11082F"/>
</linearGradient>
<linearGradient id="paint21_linear_257206_165" x1="340.804" y1="198.738" x2="340.816" y2="231.365" gradientUnits="userSpaceOnUse">
<stop stop-color="#2E1E65"/>
<stop offset="1" stop-color="#11082F"/>
</linearGradient>
<linearGradient id="paint22_linear_257206_165" x1="353.499" y1="232.203" x2="327.547" y2="242.058" gradientUnits="userSpaceOnUse">
<stop stop-color="#FE4A23" stop-opacity="0.35"/>
<stop offset="1" stop-color="#FA43B0" stop-opacity="0"/>
</linearGradient>
<linearGradient id="paint23_linear_257206_165" x1="340.54" y1="163.3" x2="340.325" y2="198.952" gradientUnits="userSpaceOnUse">
<stop stop-color="#FE4A23" stop-opacity="0.42"/>
<stop offset="1" stop-color="#FA43B0" stop-opacity="0.38"/>
</linearGradient>
<linearGradient id="paint24_linear_257206_165" x1="340.54" y1="277.437" x2="340.26" y2="236.781" gradientUnits="userSpaceOnUse">
<stop stop-color="#FE4A23" stop-opacity="0.17"/>
<stop offset="1" stop-color="#FA43B0" stop-opacity="0.48"/>
</linearGradient>
<linearGradient id="paint25_linear_257206_165" x1="17.6381" y1="2.52234" x2="17.6519" y2="38.2872" gradientUnits="userSpaceOnUse">
<stop stop-color="#2E1E65"/>
<stop offset="1" stop-color="#11082F"/>
</linearGradient>
<linearGradient id="paint26_linear_257206_165" x1="21.9216" y1="-7.62204e-07" x2="-6.34966" y2="10.8263" gradientUnits="userSpaceOnUse">
<stop stop-color="#FE4A23" stop-opacity="0.35"/>
<stop offset="1" stop-color="#FA43B0" stop-opacity="0"/>
</linearGradient>
<linearGradient id="paint27_linear_257206_165" x1="404.808" y1="159.578" x2="405.046" y2="198.414" gradientUnits="userSpaceOnUse">
<stop stop-color="#FE4A23" stop-opacity="0.42"/>
<stop offset="1" stop-color="#FA43B0" stop-opacity="0.38"/>
</linearGradient>
<linearGradient id="paint28_linear_257206_165" x1="404.808" y1="283.175" x2="405.116" y2="238.962" gradientUnits="userSpaceOnUse">
<stop stop-color="#FE4A23" stop-opacity="0.17"/>
<stop offset="1" stop-color="#FA43B0" stop-opacity="0.48"/>
</linearGradient>
</defs>
</svg>
