<svg width="20" height="20" viewBox="0 0 20 20" fill="none" xmlns="http://www.w3.org/2000/svg">
<path d="M19.3273 5.38601C19.2801 5.2718 19.2 5.17417 19.0972 5.10547C18.9944 5.03678 18.8736 5.0001 18.75 5.00007H16.3727C16.0403 4.43459 15.5672 3.96473 14.9995 3.63617C14.4318 3.30761 13.7887 3.13154 13.1328 3.12507C12.6442 3.11866 12.1591 3.21005 11.7063 3.39386C11.2535 3.57767 10.842 3.85019 10.4961 4.19538C10.1401 4.54478 9.85746 4.96183 9.66494 5.42201C9.47241 5.8822 9.37383 6.37624 9.375 6.87507V7.35085C6.22969 6.52116 3.65703 3.96257 3.62969 3.93523C3.54584 3.85063 3.43956 3.79176 3.32337 3.76555C3.20719 3.73933 3.08593 3.74686 2.97387 3.78724C2.86182 3.82763 2.76364 3.8992 2.6909 3.99351C2.61816 4.08783 2.57388 4.20097 2.56328 4.3196C2.22656 8.0532 3.31094 10.5516 4.28203 11.9899C4.75553 12.7009 5.33155 13.338 5.99141 13.8805C4.80156 15.2501 2.92812 15.9696 2.90781 15.9774C2.81962 16.0104 2.74003 16.063 2.675 16.1311C2.60996 16.1992 2.56116 16.2811 2.53223 16.3708C2.50331 16.4604 2.49502 16.5554 2.50797 16.6487C2.52092 16.7419 2.55478 16.8311 2.60703 16.9094C2.66562 16.9969 2.9 17.304 3.47266 17.5907C4.18047 17.9454 5.11562 18.1251 6.25 18.1251C11.7711 18.1251 16.3844 13.8735 16.8555 8.4032L19.1922 6.06726C19.2796 5.9798 19.339 5.8684 19.3631 5.74714C19.3872 5.62587 19.3747 5.5002 19.3273 5.38601ZM15.8117 7.68366C15.7046 7.79108 15.6401 7.93381 15.6305 8.08523C15.3125 13.0141 11.1937 16.8751 6.25 16.8751C5.425 16.8751 4.84375 16.7657 4.43594 16.6344C5.33516 16.1462 6.58906 15.3063 7.39531 14.0969C7.44263 14.0258 7.47487 13.9458 7.49005 13.8617C7.50522 13.7777 7.503 13.6914 7.48352 13.6082C7.46405 13.525 7.42773 13.4467 7.37682 13.3782C7.32591 13.3096 7.26147 13.2522 7.1875 13.2094C7.15078 13.1884 3.75703 11.1516 3.75 5.70945C5 6.72507 7.28516 8.30085 9.89609 8.73991C9.98558 8.755 10.0773 8.75042 10.1648 8.72649C10.2523 8.70256 10.3336 8.65986 10.403 8.60135C10.4723 8.54284 10.5281 8.46993 10.5665 8.38768C10.6048 8.30543 10.6248 8.21582 10.625 8.12507V6.87507C10.6243 6.54167 10.6903 6.2115 10.8191 5.90399C10.9479 5.59647 11.1369 5.31783 11.375 5.08445C11.6032 4.85577 11.875 4.67518 12.1743 4.55333C12.4735 4.43149 12.7941 4.37088 13.1172 4.37507C14.1062 4.38757 15.0305 4.9907 15.4172 5.87585C15.4659 5.98714 15.5461 6.0818 15.6478 6.14827C15.7495 6.21473 15.8683 6.25011 15.9898 6.25007H17.2398L15.8117 7.68366Z" fill="white"/>
</svg>
