<svg width="16" height="16" viewBox="0 0 16 16" fill="none" xmlns="http://www.w3.org/2000/svg">
<path d="M16 7.99958C16.0001 9.88327 15.3355 11.7066 14.1233 13.1484C12.911 14.5902 11.2289 15.5579 9.37314 15.8813C7.5174 16.2046 5.60709 15.8627 3.97868 14.9158C2.35026 13.969 1.10819 12.4779 0.471237 10.7051C-0.165717 8.93239 -0.156699 6.99176 0.496703 5.22502C1.1501 3.45829 2.40598 1.97878 4.04312 1.04709C5.68027 0.115401 7.59367 -0.208711 9.44633 0.131843C11.299 0.472396 12.972 1.45577 14.1708 2.90876C14.2303 2.97573 14.2758 3.054 14.3043 3.1389C14.3329 3.22381 14.3441 3.31361 14.3372 3.40293C14.3303 3.49225 14.3055 3.57927 14.2642 3.65879C14.2229 3.7383 14.1661 3.80868 14.097 3.86572C14.0279 3.92275 13.948 3.96528 13.8621 3.99076C13.7762 4.01624 13.6861 4.02415 13.5971 4.01401C13.5081 4.00387 13.422 3.97589 13.344 3.93175C13.2661 3.88761 13.1978 3.82821 13.1433 3.75709C12.1628 2.56819 10.8007 1.75571 9.28867 1.45786C7.77665 1.16001 6.20814 1.39519 4.84997 2.12339C3.4918 2.85159 2.42785 4.02783 1.83913 5.45202C1.25041 6.87621 1.17328 8.46037 1.62086 9.93501C2.06843 11.4097 3.01307 12.6837 4.29407 13.5404C5.57508 14.3971 7.11332 14.7835 8.64712 14.634C10.1809 14.4844 11.6155 13.8081 12.7069 12.7201C13.7983 11.6321 14.479 10.1996 14.6333 8.66625H8C7.82319 8.66625 7.65362 8.59601 7.5286 8.47099C7.40357 8.34596 7.33333 8.17639 7.33333 7.99958C7.33333 7.82277 7.40357 7.6532 7.5286 7.52818C7.65362 7.40316 7.82319 7.33292 8 7.33292H15.3333C15.5101 7.33292 15.6797 7.40316 15.8047 7.52818C15.9298 7.6532 16 7.82277 16 7.99958Z" fill="white"/>
</svg>
