<svg width="20" height="20" viewBox="0 0 20 20" fill="none" xmlns="http://www.w3.org/2000/svg">
<path d="M14.1667 1.66675H5.83335C3.53217 1.66675 1.66669 3.53223 1.66669 5.83341V14.1667C1.66669 16.4679 3.53217 18.3334 5.83335 18.3334H14.1667C16.4679 18.3334 18.3334 16.4679 18.3334 14.1667V5.83341C18.3334 3.53223 16.4679 1.66675 14.1667 1.66675Z" stroke="white" stroke-linecap="round" stroke-linejoin="round"/>
<path d="M13.3333 9.47501C13.4362 10.1685 13.3177 10.8769 12.9948 11.4992C12.6719 12.1215 12.1609 12.6262 11.5347 12.9414C10.9084 13.2566 10.1987 13.3663 9.50647 13.255C8.81425 13.1436 8.17478 12.8167 7.67901 12.321C7.18324 11.8252 6.85642 11.1857 6.74504 10.4935C6.63365 9.8013 6.74337 9.09159 7.05858 8.46532C7.3738 7.83905 7.87847 7.32812 8.5008 7.00521C9.12313 6.68229 9.83144 6.56383 10.525 6.66667C11.2324 6.77158 11.8874 7.10123 12.3931 7.60693C12.8988 8.11263 13.2284 8.76757 13.3333 9.47501Z" stroke="white" stroke-linecap="round" stroke-linejoin="round"/>
<path d="M14.5833 5.41675H14.5916" stroke="white" stroke-linecap="round" stroke-linejoin="round"/>
</svg>
