<svg width="166" height="80" viewBox="0 0 166 80" fill="none" xmlns="http://www.w3.org/2000/svg">
<g clip-path="url(#clip0_257087_1527)">
<path d="M66.692 69.2222C66.3058 68.5265 65.8077 68.1702 65.0183 68.1702C64.1883 68.1702 63.2769 68.7776 63.2769 69.7583C63.2769 70.6305 64.0765 71.0886 64.727 71.3533L65.4723 71.6689C66.9563 72.2865 68.0608 73.1621 68.0608 75.0285C68.0608 77.0578 66.5971 78.5137 64.727 78.5137C63.0431 78.5137 61.7286 77.18 61.5049 75.3848L62.8195 75.0896C62.8059 76.318 63.7173 77.2072 64.8388 77.2072C65.9602 77.2072 66.7598 76.1993 66.7598 75.0285C66.7598 73.8272 65.8619 73.3114 64.9641 72.9109L64.2459 72.5852C63.0567 72.0388 61.9725 71.3126 61.9725 69.7583C61.9725 67.9496 63.47 66.867 65.0454 66.867C66.2075 66.867 67.1629 67.4745 67.7287 68.557L66.692 69.2222Z" fill="white"/>
<path d="M72.2956 78.2742H70.9946V68.3786H68.5213V67.1026H74.7722V68.3786H72.2956V78.2742Z" fill="white"/>
<path d="M76.9167 67.1038V73.6941C76.9167 75.5198 77.4283 77.2064 79.434 77.2064C81.4397 77.2064 81.9513 75.5198 81.9513 73.6941V67.1038H83.2523V74.1692C83.2523 76.6295 81.8259 78.5129 79.434 78.5129C77.042 78.5129 75.6157 76.6295 75.6157 74.1692V67.1038H76.9167Z" fill="white"/>
<path d="M86.2425 77.0001H86.6999C89.3527 77.0001 91.6498 75.9346 91.6498 72.6903C91.6498 69.4291 89.3527 68.3771 86.6999 68.3771H86.2425V77.0001ZM84.9415 67.1046H87.0997C90.298 67.1046 92.9508 68.9099 92.9508 72.6292C92.9508 76.4368 90.3488 78.2727 87.0557 78.2727H84.9415V67.1046Z" fill="white"/>
<path d="M95.5134 78.2759H94.2123V67.1043H95.5134V78.2759Z" fill="white"/>
<path d="M106.356 72.6886C106.356 70.2283 104.641 68.1684 102.192 68.1684C99.7457 68.1684 98.0314 70.2283 98.0314 72.6886C98.0314 75.2372 99.9389 77.2088 102.192 77.2088C104.448 77.2088 106.356 75.2372 106.356 72.6886ZM107.657 72.6886C107.657 76.0075 105.211 78.5085 102.192 78.5085C99.1766 78.5085 96.7304 76.0075 96.7304 72.6886C96.7304 69.4885 99.2071 66.8687 102.192 66.8687C105.18 66.8687 107.657 69.4885 107.657 72.6886Z" fill="white"/>
<path d="M122.417 72.6445V73.0891C122.417 76.1568 120.398 78.512 117.481 78.512C114.561 78.512 112.209 75.8141 112.209 72.7192C112.209 69.5055 114.618 66.8653 117.617 66.8653C119.236 66.8653 120.842 67.6492 121.865 69.0304L120.954 69.9636C120.205 68.8675 118.945 68.1413 117.674 68.1413C115.336 68.1413 113.51 70.1706 113.51 72.6717C113.51 75.0166 115.309 77.236 117.562 77.236C119.182 77.236 120.923 75.7428 120.977 73.9171H118.281V72.6445H122.417Z" fill="white"/>
<path d="M129.861 71.6071V67.1038H131.162V78.272H129.861V72.9136H124.898V78.272H123.597V67.1038H124.898V71.6071H129.861Z" fill="white"/>
<path d="M134.306 78.2759H133.005V67.1043H134.306V78.2759Z" fill="white"/>
<path d="M137.444 77.0295H138.44C139.643 77.0295 140.9 76.646 140.9 75.0578C140.9 73.49 139.409 73.1608 138.247 73.1608H137.444V77.0295ZM137.444 72.0545H137.776C139.009 72.0545 140.016 71.7865 140.016 70.1847C140.016 68.6135 139.02 68.3488 137.803 68.3488H137.444V72.0545ZM136.143 67.1034H137.417C139.379 67.1034 141.232 67.6497 141.232 70.1711C141.232 70.9822 140.819 71.9324 140.11 72.2887V72.3158C141.344 72.5568 142.201 73.8429 142.201 75.1461C142.201 77.3858 140.419 78.2749 138.579 78.2749H136.143V67.1034Z" fill="white"/>
<path d="M144.957 77.0001H148.125V78.2727H143.656V67.1046H144.957V77.0001Z" fill="white"/>
<path d="M150.237 78.2759H148.936V67.1043H150.237V78.2759Z" fill="white"/>
<path d="M47.1521 59.6599C50.3572 58.4009 53.9451 54.9666 55.5273 50.331H47.9788V48.6377H57.7329C57.5431 49.5064 57.0078 52.0719 54.9445 55.0888C55.8017 55.8218 57.9226 57.6679 59.8538 59.704L58.485 61.1836C57.8921 60.437 56.8351 59.1135 53.9586 56.4258C52.9456 57.6679 50.9264 59.911 48.155 61.1191L47.1521 59.6599Z" fill="white"/>
<path d="M64.8882 53.2695C65.5116 53.5512 66.7313 54.1111 68.2559 55.4753C69.5332 53.7209 69.8652 52.0547 69.9974 51.4201H64.9187C63.4788 53.5512 62.2456 54.4675 61.1004 55.1801L60.0129 53.8736C62.5505 52.4585 63.8718 50.5819 64.8713 47.7958L66.6297 48.1521C66.3519 48.807 66.1791 49.2109 65.8606 49.8047H72.0437C71.6643 52.2413 70.4175 59.3779 61.856 61.5125L60.9276 59.9718C61.9102 59.7987 64.38 59.3643 67.0938 56.7988C65.6438 55.4312 64.3224 54.7627 63.7533 54.4675L64.8882 53.2695Z" fill="white"/>
<path d="M73.1507 59.1465C78.6224 58.6646 81.1058 56.8898 82.9895 50.6898L84.5616 51.4364C82.5863 57.3276 80.1334 60.2189 73.5573 61.0129L73.1507 59.1465ZM84.05 49.8346C83.7179 48.4331 83.4401 47.7985 83.2944 47.4557L84.4735 47.1741C84.88 48.0734 85.1545 49.1016 85.2561 49.4749L84.05 49.8346ZM81.9325 50.1604C81.7292 49.1016 81.5428 48.4806 81.2481 47.656L82.4407 47.3777C82.8032 48.3109 82.9353 48.7147 83.1792 49.8482L81.9325 50.1604ZM76.4032 55.3084C74.7194 54.3243 73.0355 53.7372 72.324 53.503L72.9881 51.8877C73.5302 52.054 75.6917 52.7429 77.0706 53.5505L76.4032 55.3084ZM77.5213 51.7011C76.0813 50.9205 74.7194 50.3945 73.4692 50.0043L74.1671 48.372C76.3558 49.0711 77.4467 49.6005 78.2598 50.0043L77.5213 51.7011Z" fill="white"/>
<path d="M99.7585 59.1465C105.23 58.6646 107.714 56.8898 109.597 50.6898L111.169 51.4364C109.194 57.3276 106.741 60.2189 100.165 61.0129L99.7585 59.1465ZM110.658 49.8346C110.326 48.4331 110.048 47.7985 109.902 47.4557L111.081 47.1741C111.488 48.0734 111.762 49.1016 111.864 49.4749L110.658 49.8346ZM108.54 50.1604C108.337 49.1016 108.151 48.4806 107.856 47.656L109.048 47.3777C109.411 48.3109 109.543 48.7147 109.787 49.8482L108.54 50.1604ZM103.011 55.3084C101.327 54.3243 99.6433 53.7372 98.9318 53.503L99.5959 51.8877C100.138 52.054 102.3 52.7429 103.678 53.5505L103.011 55.3084ZM104.129 51.7011C102.693 50.9205 101.327 50.3945 100.077 50.0043L100.775 48.372C102.967 49.0711 104.055 49.6005 104.868 50.0043L104.129 51.7011Z" fill="white"/>
<path d="M124.349 49.4136C124.247 48.7892 123.969 47.7474 123.726 47.1569L124.915 46.9262C125.189 47.6897 125.321 48.1546 125.525 49.1184L124.349 49.4136ZM122.824 47.0483C123.089 47.7033 123.231 48.2327 123.434 49.2134L122.997 49.2745V49.305H123.868C123.624 56.0684 120.446 59.9065 115.001 61.1553L114.087 59.489C116.424 59.0072 121.229 57.9789 122.011 50.9848H112.823V49.305H122.126C121.998 48.5279 121.865 48.063 121.578 47.2655L122.824 47.0483Z" fill="white"/>
<path d="M136.034 54.0783C136.034 56.5216 135.614 58.4322 133.926 59.7998C132.608 60.8755 131.257 61.1504 128.326 61.4932L127.791 59.7828C131.507 59.5351 134.323 58.9141 134.323 54.9029V48.1701H136.034V54.0783ZM128.705 56.8949H127.025V48.4518H128.705V56.8949Z" fill="white"/>
<path d="M145.38 47.4237C145.265 47.9361 145.133 48.496 144.784 49.3987H151.041V50.936H146.22V53.1452H150.679V54.6824H146.22V56.9086H150.679V58.4323H146.22V61.9175H144.655V50.936H144.103C143.13 52.8499 142.348 53.7356 141.897 54.265L140.908 52.9416C142.494 51.2957 143.422 48.8252 143.771 47.237L145.38 47.4237ZM139.126 53.7526H139.095C138.604 54.4381 138.208 54.825 137.818 55.1983L137.151 53.661C138.76 52.0423 139.732 50.2708 140.373 47.2506L141.911 47.5323C141.707 48.2788 141.375 49.5718 140.661 51.109V61.9175H139.126V53.7526Z" fill="white"/>
<path d="M155.176 51.8232H162.261V49.1796H155.176V51.8232ZM153.743 47.7204H163.67V53.2892H153.743V47.7204ZM160.53 59.6623H163.619V55.9769H160.53V59.6623ZM152.357 54.5448H158.002V61.7459H156.609V61.1079H153.743V61.8545H152.357V54.5448ZM153.743 59.6623H156.62V55.9769H153.743V59.6623ZM159.127 54.5448H165.018V61.8545H163.626V61.1079H160.53V61.8545H159.127V54.5448Z" fill="white"/>
<path d="M85.9312 58.7055C90.3187 55.5122 91.7992 52.6243 92.0296 52.1322L85.8533 52.1254V50.4151H93.0291V47.8122H94.6452V50.4151H97.9349V52.1662H94.6587L94.6621 61.2744H93.0291L93.0325 53.5304C93.0325 53.5304 91.7213 56.7033 86.8832 60.1817L85.9312 58.7055Z" fill="white"/>
<path d="M46.6775 63.9692H166V64.166H46.6775" fill="white"/>
<path d="M47.9883 23.6381V23.7976L47.7308 23.8858L47.0261 23.8689L46.3214 23.8994L46.2841 23.8281L46.6094 23.6245C47.0803 23.7128 47.4902 23.4786 47.9205 23.5974L47.9883 23.6381Z" fill="white"/>
<path d="M31.04 39.3855L30.918 39.5314L30.6876 39.8368L30.525 40.0235L30.0371 40.4171L29.5391 40.7463C29.2138 41.0381 28.7666 41.2587 28.2381 41.3435L27.6011 41.4148C27.2352 41.3741 26.832 41.3741 26.5339 41.2112L26.2086 41.1094C25.7784 40.8854 25.6123 40.7225 25.4497 40.2542L25.4362 40.1388H25.4091L25.382 39.7757L25.3413 39.6739L25.2735 38.8798V38.7611H25.2871L25.3007 38.1808L25.3515 38.0654L25.4091 37.95H25.4362L25.4497 37.7634H25.4599L25.5039 37.614V37.0813L25.5581 36.9795L25.5819 36.8471L25.6123 36.6163H25.6395L25.653 36.484H25.6666L25.7072 36.355V36.2668H25.7343L25.7614 36.1107H25.7851L26.0325 35.6458L26.1815 35.4558C26.5068 35.2555 26.788 34.9603 27.303 34.9331L27.8993 34.7295C28.2245 34.7465 28.5227 34.8313 28.8479 34.8924L29.5255 35.2216L29.9287 35.6594H29.9558L29.9863 35.7476H30.01L30.132 35.9784C30.6639 37.0168 30.901 37.6751 30.9993 38.8798L31.0128 39.0088H31.04V39.3855ZM32.0665 39.4126L31.704 39.2124L31.5956 39.1242L31.5143 39.0495L31.4601 38.8188H31.4296L31.3923 38.1808H31.3788L31.3517 38.0111L31.3076 37.7464L31.2568 37.3256H31.2297L31.189 37.122H31.1755L31.1213 36.9489L31.0671 36.7453L30.9586 36.4263H30.9315L30.8672 36.2532C30.3556 35.001 30.071 34.7227 28.7666 34.4004L28.36 34.268C27.9264 34.251 27.452 34.268 27.0624 34.4139C26.7507 34.38 26.5847 34.5565 26.3713 34.6718L25.8427 35.0485L25.6903 35.2827L25.653 35.3981L25.4904 35.6152L25.4091 35.7171L25.3684 35.8766H25.3515L25.2871 36.0055V36.0496L25.2464 36.1955H25.2329L25.1922 36.4127H25.1651V36.484L25.138 36.7453H25.1109L25.0838 37.0813H25.0567L25.0161 37.2679H25.0025L24.9618 37.5122H24.9483L24.9347 37.6887H24.9076V37.8346H24.8805L24.9076 38.079L24.6366 38.5303H24.623L24.6366 38.6762L24.6502 38.7169L24.9076 39.0495H24.8805V39.1547L24.867 39.5144L24.9076 39.735L24.9483 39.9658L24.9618 40.037H24.989L25.0025 40.1694L25.0567 40.3425L25.1109 40.4578L25.3278 40.7802L25.7851 41.2112L26.2188 41.5607C26.666 41.6761 27.0861 41.951 27.6282 41.822C27.9399 41.7779 28.3329 41.7915 28.5362 41.5879L28.9157 41.5166L29.2138 41.4318L29.8474 41.0958L30.2946 40.7599C30.6063 40.5902 30.7554 40.3017 31.0128 40.0947L31.2568 39.7893L31.3517 39.7045L31.9073 39.6332L32.0665 39.4126Z" fill="white"/>
<path d="M19.8182 35.4414L19.8588 35.455H19.8453V35.4821H19.8317L19.7369 35.8452H19.7098L19.6691 36.0658H19.6556L19.6149 36.3373H19.6014L19.5742 36.5002L19.5336 36.7479H19.5065V36.8769H19.4794L19.3845 37.0669L19.2219 36.9651L19.2117 36.8497H19.2354L19.2626 36.4425H19.2897L19.3303 36.2558H19.3439L19.3574 36.093H19.3845L19.4116 35.8792H19.4387L19.5065 35.6586L19.5336 35.5703L19.5878 35.4821V35.4278L19.6149 35.4007L19.7369 35.3124L19.8182 35.4414Z" fill="white"/>
<path d="M20.1436 36.3694L20.1571 36.4304L20.1843 36.573H20.1571L20.1164 36.8071L19.8857 36.875L19.8314 36.573L19.8857 36.444L20.1436 36.3694Z" fill="white"/>
<path d="M20.6448 36.6743L20.6991 36.7625V36.9933L20.6041 37.0781L20.3869 36.8779L20.4005 36.749L20.4412 36.715L20.6448 36.6743Z" fill="white"/>
<path d="M21.4023 37.0949L21.4295 37.2544L21.348 37.3562L21.1207 37.268L21.063 37.1221L21.0766 36.9659H21.2802L21.4023 37.0949Z" fill="white"/>
<path d="M26.8572 38.3558L26.7759 38.254L26.7488 38.0368L26.8436 37.9927L26.8843 38.0368L26.8979 38.1081L26.8572 38.3558ZM27.1824 37.9792L27.1249 37.6737H27.1011L27.074 37.3412L26.9927 37.1817L26.7759 36.9611C26.3422 36.8186 26.2067 37.1952 26.0204 37.3989L25.9357 37.5142L25.895 37.6602H25.8815V37.7484L25.8408 37.8773H25.8171L25.79 38.4712L25.8408 39.0074L25.8815 39.0821L26.1796 39.5605L26.7488 39.53L26.9114 39.4282L27.1011 39.0821H27.1249L27.1553 38.9226C27.1249 38.573 27.2231 38.3151 27.1824 37.9792Z" fill="white"/>
<path d="M15.4594 40.618L15.5136 40.7063L15.6186 40.8658L15.6491 41.0219L15.4865 41.2119L14.714 41.4155L14.2838 41.1983L14.3346 41.083H14.3481L14.3922 40.9065H14.4193L14.443 40.747L14.5921 40.557L15.229 40.428L15.4594 40.618Z" fill="white"/>
<path d="M29.5236 45.7513C28.968 45.7649 28.4428 45.7513 27.9007 45.7513L27.3315 45.6801L27.2231 45.5783L27.3146 45.5341L28.5343 45.6631C28.8731 45.5613 29.1983 45.7106 29.5236 45.7242V45.7513ZM41.1242 47.1461C40.6261 46.9696 40.0434 46.9696 39.5657 46.783C39.1083 46.7355 38.6848 46.5929 38.1868 46.6336L37.7023 46.5352L37.2415 46.447C36.8891 46.3757 36.5097 46.3588 36.1302 46.3316C35.805 46.1552 35.3442 46.2705 35.0461 46.1009C34.504 46.0703 34.0872 45.8124 33.5452 45.8803C33.1623 45.8667 32.854 45.7242 32.4474 45.7649C32.0578 45.6495 31.5801 45.7106 31.1905 45.6359L30.4553 45.5783C29.9437 45.5206 29.4016 45.4629 28.8731 45.5206C28.4123 45.4323 27.9278 45.3611 27.4095 45.3746L26.7488 45.2728L26.6268 45.5341H26.5997L26.6133 45.6801L26.9385 46.0567C27.3451 46.1687 27.8194 46.3316 28.2768 46.2027C28.6427 46.2162 28.9951 46.2705 29.3474 46.2298C29.6862 46.2875 30.0386 46.2162 30.3638 46.3045L31.0245 46.3588C31.4581 46.3893 31.8783 46.3452 32.2984 46.4165C32.6236 46.3316 32.8947 46.4911 33.2199 46.5047L34.382 46.5929C34.7784 46.7219 35.2493 46.6506 35.6423 46.7524C36.0083 46.766 36.3742 46.766 36.713 46.8542L37.4719 46.9255L38.1054 47.0578L38.6746 47.1461C39.0812 47.2886 39.5657 47.275 39.9756 47.4209L40.6769 47.5635L41.2597 47.4888L41.2868 47.4481L41.1242 47.1461Z" fill="white"/>
<path d="M24.6782 47.4769C25.0848 47.6059 25.5964 47.5041 26.0063 47.6941L26.5857 47.8265L26.9516 47.9554C27.2904 47.9554 27.6292 48.0708 27.9782 48.0844L28.2661 48.4068V48.5798C27.7512 48.5493 27.3209 48.3457 26.8161 48.2914L26.1656 48.1421C25.3931 48.1149 24.746 47.6941 23.9464 47.8672L23.4721 47.5652L23.4213 47.3887L23.9329 47.4158L24.6782 47.4769Z" fill="white"/>
<path d="M40.5293 51.3775C40.177 51.5234 39.8009 51.3639 39.4621 51.3198C38.9708 51.1162 38.3915 50.9873 37.8901 50.7972V50.7836L37.2023 50.6683C36.8466 50.5359 36.4569 50.4816 36.0605 50.4205L35.4405 50.2305C34.8849 49.9828 34.1937 49.7826 33.6144 49.5789C33.0418 49.4907 32.5573 49.2769 32.0423 49.114L31.5003 48.8697L31.5138 48.8256C31.8255 48.795 32.0695 48.9274 32.3405 48.9715C32.7335 49.1751 33.2586 49.2294 33.6923 49.3618L34.1395 49.4194C34.5325 49.5382 34.9933 49.5789 35.3457 49.769C35.6845 49.8538 35.9386 50.071 36.3214 50.1015C36.7822 50.2746 37.3073 50.3764 37.7681 50.5359L38.6219 50.709C38.9336 50.7972 39.2825 50.8244 39.5705 50.9567L40.0177 51.0891L40.5429 51.3029H40.5564L40.5293 51.3775ZM41.2882 51.3504L41.085 51.1162L40.6242 50.7836C40.3261 50.7972 40.1634 50.5936 39.8653 50.6242C39.6213 50.5088 39.4181 50.3459 39.0793 50.3628C38.5507 50.1728 37.9172 50.0846 37.3344 49.9692L36.711 49.6943L36.0233 49.4771L35.5218 49.2769L34.8713 49.0869C34.1124 48.8391 33.3027 48.7509 32.5167 48.5337C32.1779 48.4353 31.7578 48.4625 31.4596 48.3064C30.1484 48.1028 28.9423 47.7261 27.6718 47.4614C27.3974 47.2883 26.9637 47.3154 26.6418 47.1865L26.3301 47.1288C26.0184 47.0575 25.6525 47.0406 25.3544 46.9388L25.0291 46.8845L24.3244 46.6639C23.989 46.4603 23.5283 46.6367 23.2403 46.7657L23.1895 46.837L23.2301 47.0575L23.5926 46.9116L24.1212 47.0575C24.5955 47.1152 25.0156 47.2476 25.4493 47.3765L25.639 47.4478L26.0998 47.6209C26.5029 47.665 26.9129 47.6209 27.2483 47.7804C27.6718 47.8414 28.0208 48.0417 28.468 47.9399L28.6171 48.0417C28.9152 48.0552 29.1456 48.2181 29.376 48.3199L29.1185 48.4489L28.9152 48.6966L28.9559 48.7238C29.3184 48.8527 29.7012 48.9104 30.0773 49.0428C30.5381 49.114 30.9311 49.3482 31.419 49.3753C32.1508 49.6231 32.8927 49.7961 33.6144 50.0439C33.9634 50.1592 34.4106 50.2169 34.7358 50.3764L35.0204 50.4816C35.3829 50.5359 35.6303 50.7531 36.0097 50.7701C36.4129 50.8855 36.8195 50.9873 37.2159 51.1162L38.0527 51.3368C38.5812 51.4657 39.1504 51.5676 39.6484 51.7406C40.0008 51.7678 40.3125 51.7271 40.6242 51.8289L41.2882 51.5676V51.3504Z" fill="white"/>
<path d="M14.7959 49.3906L14.8366 49.5365L14.7417 49.6213L14.0234 49.5637L14.0099 49.3906L14.0912 49.2752L14.6333 49.2141L14.7959 49.3906Z" fill="white"/>
<path d="M34.5458 54.7274L34.4645 54.7002L33.6785 54.3507L32.9738 53.9876L32.286 53.6245L31.5135 53.353C31.1612 53.1901 30.7411 53.1019 30.4023 52.9152C30.0499 52.8134 29.7247 52.6981 29.457 52.4775L28.8878 52.2908C28.6032 52.1754 28.3864 51.9854 28.0747 51.9141L27.6546 51.7682L26.8855 51.3915L26.5467 51.1574L26.6416 51.042C27.1023 51.0895 27.414 51.378 27.885 51.4357L28.0612 51.4933C28.4677 51.6698 28.9285 51.7682 29.291 51.999C29.6061 52.1008 29.9415 52.2331 30.2125 52.3621L30.863 52.6981L31.2561 52.9152C31.5813 53.0442 31.9472 53.2037 32.2149 53.3937L32.8145 53.655L33.2042 53.8111L34.0173 54.2625L34.5458 54.6527V54.7274ZM36.2906 55.4808L35.8875 55.1652L35.464 54.7681L34.6136 54.1742C34.2477 53.8586 33.709 53.7127 33.3261 53.3937L32.7976 53.1189L32.5672 53.017L32.2996 52.8542C31.9879 52.8406 31.8659 52.6098 31.6084 52.5521L31.0528 52.3078L30.321 52.0126L29.6874 51.7682L29.1589 51.5544C28.8573 51.3474 28.4677 51.2456 28.1154 51.1031C27.7664 51.059 27.4649 50.8995 27.1396 50.8282L27.1023 50.7807L26.2892 50.7536L26.1368 50.9266L26.0995 51.0895H26.0859L26.1672 51.378L26.5738 51.7411C27.0888 51.9311 27.5733 52.2026 28.0916 52.3757L28.8201 52.6811C29.0911 52.9017 29.5349 52.9288 29.8466 53.0883C30.1211 53.353 30.592 53.3326 30.9071 53.5668C31.4051 53.6245 31.6728 53.9605 32.1776 54.0181L32.2149 54.0589L32.8789 54.3779L33.3668 54.5679C33.7869 54.6867 34.1664 54.8563 34.4645 55.1177C34.7762 55.1448 35.0201 55.3213 35.3183 55.3925L35.5995 55.5554L36.2364 55.6233L36.3076 55.5249L36.2906 55.4808Z" fill="white"/>
<path d="M22.228 57.946H22.2822L22.3635 58.0614C22.621 58.1938 22.8345 58.3668 23.1462 58.4381L23.4613 58.713L23.4477 58.8759L23.4206 58.9302L23.7154 59.1066C24.0677 59.1643 24.2981 59.3408 24.6098 59.4087L24.8266 59.5987L24.935 59.8328L25.0028 59.8871L25.057 60.0195L25.0841 60.2367H25.1112C25.6296 60.8136 25.9176 61.2717 26.4224 61.8316L26.5444 62.0488H26.5748C26.9306 62.5375 27.598 63.0669 27.7776 63.6302L27.9267 63.861C28.1435 64.1664 28.462 64.6517 28.5501 65.0385L28.5907 65.5713L28.6314 65.7749H28.6449L28.7127 65.8937L28.7669 66.2975H28.7906L28.8889 66.5283L28.9431 66.6471C29.021 66.9457 29.3733 67.0577 29.4851 67.5599L29.5258 67.6482L29.5766 67.862L29.6071 67.9807L29.6478 68.5746L29.7799 68.9241L29.8646 69.0667L29.9832 69.2296L30.2847 69.4875L30.7319 69.9388L30.7963 70.0712L30.8505 70.665H30.8234L30.7828 70.8653H30.7692L30.7557 71.0689H30.7319L30.7421 71.096H30.7319V71.1266H30.7557L30.7692 71.9376L30.8234 72.6638L30.8912 73.0541L30.9047 73.2306H30.9318V73.3052L30.9488 73.5631L30.9725 73.709H30.986L30.9725 74.3776L31.1216 74.5778L31.108 74.8255H31.0809L31.0538 75.0291H31.0267L31.0131 75.1445H30.9996L30.9589 75.3312L30.8099 75.4805L30.6608 75.4058V75.2022H30.6879L30.7319 74.9273L30.7828 74.6524V74.5642H30.8099L30.7963 74.3911L30.4575 74.0857L30.4304 73.9127H30.4575L30.5016 73.7498V73.5326H30.5151V73.3595H30.5388L30.5151 73.0982L30.4575 72.9692L30.4169 72.8403L30.3762 72.7792L30.3355 72.5926H30.3084L30.2983 72.1141L30.2847 71.8222H30.3084V71.3437H30.2847V70.8245H30.3084V70.5768H30.3355L30.2542 70.1119H30.2271L30.1763 70.0101L29.9019 69.7352L29.6207 69.4468L29.3462 69.0972L29.3225 68.9683H29.2954L29.2819 68.8359L29.2514 68.4898L29.1463 68.2115L29.1159 67.9943H29.0921L29.0379 67.6753L28.9973 67.5871L28.9431 67.4717L28.7262 67.0679H28.7127L28.6449 66.9661L28.523 66.7319L28.4823 66.6607L28.3874 66.5283H28.3603L28.3061 66.3858L28.2519 66.1991L28.2384 66.0634H28.2113L28.1706 65.6867L28.1435 65.517L28.0893 64.9503H28.0622L28.008 64.8044L27.8725 64.5295L27.7911 64.353H27.7776L27.7098 64.2512L27.5912 64.0374H27.5777L27.5065 63.9051C27.0966 63.2875 26.9916 62.9956 26.2869 62.4391L25.9752 62.0217H25.965L25.8532 61.8316C25.3924 61.0681 24.8842 61.0749 24.6233 60.2638L24.3523 59.8464H24.3286L23.8678 59.5851L23.1902 59.2797L23.1733 59.1507H23.1462L23.0649 58.9607C22.7261 58.9607 22.6617 58.6723 22.4449 58.5535L21.8486 58.2209L21.73 57.8442L21.9028 57.773L22.228 57.946Z" fill="white"/>
<path d="M14.593 71.0115L14.5659 71.4628H14.5387L14.5252 71.5918H14.5116L14.471 72.0838L14.4981 72.1415H14.4845L14.471 72.6641H14.4439L14.3897 72.8677V72.9118L14.227 72.9695L14.0509 72.8983L13.9289 72.6641L13.8781 72.5929L13.8069 72.4469L13.7392 72.2569L13.6037 72.0702L13.5901 72.0261L13.2649 71.5782L13.2005 71.5035L13.0616 71.2286L13.048 71.0997H13.0209L12.9023 70.8961L12.6957 70.8384L12.5872 70.7502L12.4416 70.5465L11.9672 70.1427C11.642 70.0104 11.4658 69.7049 11.005 69.7525L10.4494 69.9255V69.9663L9.73454 69.9391L9.72099 69.895L9.73454 69.6778L10.2902 69.1722L10.5714 68.9516L10.9915 68.6326L11.371 68.2559L11.8046 67.9064L12.1434 67.662C12.4416 67.5467 12.6719 67.343 12.9972 67.2412L13.2649 67.2854L13.4173 67.4279L13.563 67.5908L13.6308 67.7367L13.7798 67.9064L13.8882 68.0387L13.9425 68.1677L14.0102 68.4324H14.0373L14.0949 68.5919L14.1593 68.7751L14.2135 68.938H14.2406L14.2813 69.1382L14.3219 69.2265L14.349 69.3283L14.4439 69.9086H14.471L14.5116 70.6212H14.5252L14.593 70.9707L14.5659 71.0115H14.593ZM14.8775 70.6619L14.8504 70.3158L14.7827 69.9391H14.7962L14.742 69.5896H14.7149L14.6878 69.3147H14.6607L14.6336 69.1857L14.593 68.8091L14.5387 68.6597H14.5116L14.4303 68.3441L14.3897 68.1541H14.3626L14.3084 67.9064L14.2406 67.7774L14.1864 67.6485L14.1322 67.5297L14.0949 67.489L13.6037 67.0376L13.1293 66.7322C12.6144 66.5863 12.2756 66.963 11.9808 67.1971L11.6962 67.4279L11.127 67.6756L10.9779 67.8215L10.8323 67.9675L10.6154 68.1541L10.341 68.3713C10.0462 68.5172 9.90733 68.8091 9.63967 69.0093L9.5177 69.1382C9.25344 69.4233 9.02305 69.7321 8.75879 70.0273V70.1563H8.78589L8.79945 70.2445L8.98917 70.4922C9.54481 70.6348 10.0869 70.4447 10.5985 70.3599L11.1812 70.2445C11.5065 70.1563 11.6149 70.4176 11.8283 70.533L12.1434 70.852L12.5059 71.0997L12.5229 71.1574H12.55C12.7871 71.5103 13.1158 71.8259 13.3224 72.2026L13.4546 72.4469H13.4817L13.5088 72.5352L13.563 72.6336H13.5901L13.6613 72.8372H13.685L13.8205 73.1426L13.8882 73.2274L14.4439 73.5193L14.7149 73.3768L14.742 73.3462L14.7522 73.2139L14.8098 72.5759H14.8369V72.318H14.8098V71.8666H14.8369V71.6936H14.8504L14.8606 71.5171H14.8911L14.9318 71.2286H14.9453L14.9589 71.0997H14.9724V70.9097L14.8775 70.6619Z" fill="white"/>
<path d="M24.1502 79.4944L24.0553 79.5962L23.703 79.5351C23.2456 79.1822 22.9 78.7037 22.5239 78.2625L22.4833 78.2184C22.3105 78.0012 21.9175 77.8858 21.5922 77.9299L20.9011 77.784C20.5352 77.6958 20.2506 77.913 19.9118 77.8247L19.7898 77.6551L19.7763 77.6381H19.7898L19.8034 77.3938L19.8982 77.292L20.0642 77.1596L20.237 77.0273L20.7656 76.5657V76.5352L20.9146 76.3485L21.3212 75.9108L21.5787 75.697C21.8091 75.4323 22.0801 75.2321 22.4833 75.1438L22.9441 75.0997L23.3777 75.4798L23.459 75.5816L23.5132 75.6664L23.6488 76.0126H23.6759L23.7165 76.1449L23.7572 76.2196L23.8249 76.3621L23.8656 76.5793L23.8927 76.7795C23.9842 77.1019 23.8758 77.6076 23.9842 77.913L24.0282 78.1471H24.0553L24.0926 78.8123H24.1095L24.1366 79.1584L24.1773 79.3654L24.1502 79.4944ZM24.5974 79.379L24.5398 78.8123L24.5161 78.5374H24.5296L24.489 78.3473L24.4754 78.2897L24.3535 77.7229H24.3399V77.6551H24.3535V77.2037L24.323 76.6098H24.2993L24.2722 76.3485L24.2315 76.2467L24.1773 76.1008H24.1502L24.1231 75.9244L24.0824 75.8565L24.0282 75.7377H24.0147L23.974 75.6529L23.852 75.5205L23.581 75.1574L23.0118 74.6518L22.6053 74.5635C22.2021 74.4753 22.0259 74.7807 21.7006 74.869V74.8825L21.267 75.2015L20.5894 75.8701L20.5216 75.9854V76.0431L20.4674 76.1449L20.4132 76.2467L20.0066 76.7388L19.6306 77.0442L19.451 77.3055L19.3866 77.4345L19.1833 77.6822V77.8858L19.2613 78.0012C19.4781 78.2489 19.9795 78.3779 20.359 78.2489L20.8333 78.2625L21.6024 78.2897L21.6159 78.1336H21.6464L21.66 78.2625H21.6329L21.6735 78.3779H21.7549L22.2529 78.551V78.5781L22.4833 78.7851L22.5409 78.9005L22.7713 79.2195L22.8221 79.2907L23.0389 79.5826H23.066L23.2964 79.8134L23.9469 80L24.5025 79.8982L24.5974 79.7115H24.6245V79.379H24.5974Z" fill="white"/>
<path d="M67.5766 46.07L67.5902 46.1854L67.6851 46.708L67.7257 46.8845L67.7528 47.1424H67.7799L67.8477 47.4173H67.8748L67.9019 47.7091H67.929L67.9561 47.8822H67.9832L67.9968 47.9976L68.1187 48.4489H68.1323L68.1458 48.622L68.2 48.9545H68.2271L68.2543 49.1853H68.6405L68.6303 48.9987H68.6032L68.5931 48.8663L68.5524 48.622H68.5219L68.4846 48.4489H68.4711L68.4169 48.2724L68.3762 48.0858L68.3491 47.7668H68.322L68.278 47.5937H68.2678L68.2136 47.4037L68.2 47.217L68.1594 47.1424L68.0611 46.6368L68.051 46.4603H68.0239L67.9968 46.2736L67.9561 46.1718L67.9019 46.0293H67.8748L67.8477 45.8393H67.8206L67.7799 45.6323L67.6715 45.3744L67.6173 45.2013H67.5902L67.5224 44.9841L67.4682 44.8653L67.414 44.7499L67.3463 44.5904H67.3327L67.2649 44.2715H67.2378L67.1701 43.983L67.1159 43.8201L67.0617 43.7183H67.0346L66.9702 43.5181L66.9126 43.3891L66.8177 43.1414L66.7635 42.9955H66.7398L66.6687 42.6901L66.6144 42.5611H66.5873L66.5365 42.3575H66.5094L66.4383 42.0826L66.3841 41.9808L66.3299 41.8654H66.3061L66.235 41.6618L66.1842 41.4752L66.1266 41.3293L66.0182 41.051L65.9673 40.8949L65.886 40.6879H65.8589L65.8454 40.5453L65.8013 40.3858L65.737 40.0804H65.72L65.6794 39.8666L65.6421 39.792L65.598 39.663H65.5709L65.5337 39.4424H65.5201L65.4896 39.3271L65.4524 39.1235L65.3981 38.964H65.3677L65.3033 38.7468L65.2457 38.6178L65.0289 38.2683L64.8696 38.0816L64.6392 37.7457L64.6663 37.4878L64.7036 37.3113H64.7205L64.7036 37.1247L64.5715 36.8023L64.5173 36.6597H64.4902L64.4631 36.5715H64.436L64.3682 36.4426H64.3411L64.314 36.3543H64.2869L64.192 36.1812C63.6059 35.3906 63.2874 34.6508 62.8266 33.8465L62.6911 33.5682H62.6606L62.5387 33.368C62.2473 33.0083 61.983 32.5875 61.5934 32.3364L61.241 32.0479L60.7532 32.221L60.8345 32.4551L61.363 32.7606L61.9322 33.2357L62.1897 33.5004L62.5658 33.877L62.4438 34.0331L62.2439 34.2368L62.1626 34.3216L62.1219 34.3691L62.1626 34.5116L62.2032 34.5591L62.7555 34.7594V34.7865H62.7826C63.1519 35.2311 63.4805 35.7129 63.8126 36.1948L63.8668 36.3238H63.8939L64.0971 36.6597V36.8192H64.07L64.0463 37.0093H64.0158L63.8668 37.2265L63.8397 37.2536L63.8532 37.3249L64.0294 37.6439L64.3275 37.9527L64.3411 37.9934L64.7341 38.4447L64.8019 38.5873H64.829L64.9645 38.9232L65.0289 39.0081L65.1 39.2253H65.1271L65.1678 39.4289L65.1949 39.6461L65.2457 39.8938L65.3168 40.0227L65.3981 40.1822H65.4117L65.4524 40.3587H65.4761L65.5201 40.6472H65.5066L65.5337 40.8643H65.5608L65.598 41.0374L65.6421 41.1256L65.6794 41.3293L65.737 41.4752L65.8149 41.5906L65.886 41.7636H65.9097L65.9673 42.008C66.0927 42.3575 66.2824 42.6935 66.4281 43.0667L66.4654 43.3009H66.4925L66.5365 43.5045L66.6144 43.8201H66.6449L66.6687 44.0237H66.6958L66.7635 44.2715H66.7906L66.8482 44.431L66.899 44.5463L66.9702 44.7092L67.021 44.8517H67.0481L67.187 45.1402L67.2649 45.3608L67.3192 45.4897H67.3463L67.4276 45.7205L67.4818 45.8528L67.5495 46.07H67.5766Z" fill="white"/>
<path d="M26.4247 18.722V18.868H26.3976L26.384 18.9969H26.3705L26.3298 19.1395L26.2485 19.2413L26.0181 19.506L25.5031 19.3295L25.354 19.1395L25.2761 19.058L25.2185 18.9121L25.1779 18.8239L25.1237 18.6202H25.1542V18.4743H25.1677L25.1779 18.1553L25.2761 18.0128L25.4083 17.8262L25.9774 17.6904L26.262 17.9687L26.3433 18.2028H26.3705L26.4382 18.5626L26.4518 18.722H26.4247ZM26.7635 18.3861L26.7228 18.0399L26.6686 17.9415L26.5602 17.7786L26.5466 17.7515L26.4247 17.6361L26.2078 17.4291C25.9774 17.2866 25.6522 17.4461 25.354 17.3748L25.1101 17.5615L24.9746 17.7379L24.8425 18.0399H24.8289L24.7849 18.23H24.7578V18.5184H24.7849L24.8289 18.9121H24.8425L24.9102 19.2277L24.961 19.3736H24.9881L25.083 19.5908L25.354 19.6383L26.1943 19.7231L26.3433 19.6044L26.5466 19.3159L26.6008 19.2277V19.2005L26.7499 18.9121H26.777L26.7635 18.3861Z" fill="white"/>
<path d="M48.2454 21.4337V21.4472L48.0285 21.23L47.9337 21.1452L47.7033 20.8398L47.6897 20.7957L47.2696 20.402L46.88 20.0728L46.4057 19.6487L46.3244 19.5333H46.2973L46.2837 19.4926L46.2024 19.3602L46.758 19.6215C47.2561 20.2018 47.7101 20.3986 48.1505 20.8805L48.2183 21.0841H48.2454L48.2725 21.4065L48.2454 21.4337ZM47.9201 22.8556L47.7575 22.8148L47.7846 22.7402L48.0014 22.6655L48.015 22.6927L47.9201 22.8556ZM36.6855 21.2165L36.6008 21.0163L36.9972 20.8669L37.048 21.1452L36.6855 21.2165ZM34.0157 21.4201L33.8937 21.5932L33.3008 21.9868L32.4199 22.333C31.9084 22.4178 31.556 22.6791 31.0918 22.8284L30.4142 23.015L29.6587 23.4359L29.4825 23.5343C28.998 23.6361 28.561 23.8397 28.1985 24.0874L27.3582 24.4505C26.684 24.9053 26.0369 25.4109 25.5694 26.1032L25.3966 26.2898L24.8274 26.1032L24.6749 25.8588L24.6241 25.7401L24.4445 25.5229L24.4208 25.4346H24.3937L24.2582 25.2344L24.1362 25.0037L24.0685 24.8272L23.9601 24.627L23.9194 24.4505H23.8923L23.8381 24.3046L23.8245 24.2028H23.7974L23.7568 23.972L23.7161 23.7379H23.689L23.6755 23.5343L23.6619 22.8556L23.689 22.6384L23.6619 22.3635V21.8545H23.6755L23.7161 21.6814V21.1588H23.689V20.8092H23.7161L23.6755 20.5038H23.6619L23.6213 20.29H23.5942V19.9982L23.689 19.9269L24.0109 19.764L24.0685 19.6792L24.1498 19.5638V19.3025H24.1904V19.1702H24.2176L24.2277 18.9089H24.2447L24.2277 18.6068L24.1362 18.1589L23.9465 17.9247L23.6619 17.8229V17.5922H23.6755L23.689 17.4327H23.7161L23.7432 17.2426H23.7703L24.0956 16.6793L24.1498 16.5504L24.2176 16.4621L24.3361 16.2415L24.4208 16.1533L24.4445 16.0108H24.475L24.4344 15.8072L24.3937 15.7495L24.3124 15.6205L24.2447 15.4746H24.2582V15.3728H24.2718C24.2447 14.9961 24.3361 14.6635 24.2718 14.3004L24.2989 14.2869L24.2853 14.2122H24.2989L24.2718 13.8219H24.2447L24.2176 13.6048H24.1904L24.1362 13.3435L24.1227 13.2281H24.0956L24.0685 13.0075H24.0414L24.0278 12.6919C23.9465 12.3729 24.0007 11.8944 23.9872 11.5008L24.0109 11.0223H24.0278L24.0685 10.8933V10.3979H24.0956L24.1362 10.1094H24.1498V9.87526L24.204 9.84811L24.3124 9.93634C24.492 10.3741 24.6749 10.8085 24.9223 11.2089L25.0273 11.572H25.0442L25.1086 11.8062H25.1357L25.1933 11.9216L25.2035 11.9826L25.2306 12.1829L25.2441 12.1964H25.2306V12.6172H25.2035L25.1662 12.9396L25.1933 12.9532H25.1662L25.1933 12.9668H25.1662V13.0686H25.1933V13.1093H25.1662V13.3978H25.1526L25.1357 13.7066H25.1086L25.1357 14.1715H25.1086V14.4294H25.0849L25.0713 14.9656H25.0578V15.3592H25.0849L25.1662 15.4441L25.4474 15.1828V15.1285H25.461V14.8061L25.505 14.314V14.1851H25.5186L25.505 13.7948V13.5742H25.5186L25.5287 13.2959H25.5558L25.5999 13.038V12.7326H25.6134L25.627 12.3288H25.6405L25.627 12.3118H25.6405L25.6778 11.5585H25.6913L25.7354 11.2971V11.1818H25.7591L25.7998 10.9782H25.8133L25.854 10.761H25.8675L25.9082 10.4284H25.9387V9.96349H25.9082V9.75988H25.9387L25.9251 9.74631H25.9387L25.9624 9.54269H25.9895L26.0166 9.30854H26.0437L26.0844 9.12189H26.0979L26.1386 8.96579L26.2063 8.90471L26.4503 9.21012L26.4909 9.35605L26.5722 9.485L26.6264 9.58681L26.6942 9.80739H26.7077L26.7755 9.93634L26.8162 10.0823L26.8568 10.1841L26.8975 10.442H26.911L26.9652 10.5743L27.0059 10.6286L27.0601 10.761L27.1279 10.9782H27.155L27.1821 11.141H27.2092L27.2735 11.3107L27.4125 11.5449L27.4667 11.7044L27.4802 11.8333H27.5073L27.5344 12.1116H27.5615L27.5886 12.529C27.6123 12.9702 27.6361 13.4792 27.9376 13.8219L28.1849 14.0833C28.3984 14.3276 28.6152 14.5617 29.0218 14.65L29.5909 15.0267L29.984 15.3728L30.0788 15.5594H30.1059L30.1601 15.6612C30.3905 16.082 30.5091 16.4961 30.7835 16.866L30.9191 17.0085C31.6915 18.5084 31.3798 17.7652 32.3928 18.7935L32.5419 19.0141L32.7994 19.5197H32.813L32.8807 19.7233L32.9349 19.9269H32.962L33.0298 20.1882H33.0569L33.1111 20.3036L33.2195 20.5038L33.2602 20.5921L33.2737 20.6362L34.0157 20.9959L34.0868 21.2877L34.0157 21.4201ZM23.4857 19.5333L23.418 19.4179L23.3773 18.9089L23.4044 18.6917H23.418L23.462 18.5186L23.5671 18.3421L23.689 18.186L23.7432 18.2607L23.811 18.3421L23.5671 18.8071L23.6755 18.9564L23.7974 19.0684L23.8652 19.1159L23.8516 19.2855H23.8245L23.7026 19.462L23.4857 19.5333ZM3.62857 63.6595L4.14354 63.3134C4.50606 63.0928 4.90246 62.9027 5.26498 62.672L5.48181 62.8213L5.49536 62.9197L5.52247 63.2251L5.58006 63.6459H5.59023V64.0803H5.58006L5.54957 64.6165L5.58006 64.7488H5.59023L5.64444 64.9796L5.65799 65.1662H5.68509L5.69865 65.8653L5.75285 66.4456L5.80706 66.8902L5.82061 66.9105H5.80706L5.83417 66.9512H5.80706L5.82061 66.9784H5.80706L5.77996 67.199L5.7122 67.2702L5.61733 67.2567L5.41405 66.9512L5.38695 66.8902L5.18367 66.5135L5.02443 66.3268L4.90246 66.0689H4.88552L4.76355 65.8653L4.69918 65.8042C4.59076 65.5769 4.26552 65.5565 3.96398 65.5769C3.58791 65.6176 3.30332 65.7601 2.95096 65.8483L2.50374 66.0825L1.82614 66.4151L1.63641 66.3709L1.60931 66.2556H1.62286L1.6669 65.9943L1.73128 65.8483L1.78548 65.7601V65.6447L1.87019 65.5565L1.96166 65.2986H1.9786L2.01587 65.1662C2.82222 64.0328 2.53085 64.854 3.24911 63.9785L3.62857 63.6595ZM40.8527 19.5469L40.8968 19.5197L41.0831 19.3738H41.6387V19.462L41.466 19.6079L40.8527 19.6962V19.5469ZM62.3904 32.5848C62.0549 32.2794 61.7398 31.9469 61.4857 31.5973L61.3062 31.034L61.1029 30.8711L61.025 30.7286L60.9572 30.4401L60.4287 29.7275C60.1068 29.4967 59.9408 29.1065 59.5647 28.93L59.1175 28.5669L59.0227 28.4244L59.0599 28.3531L59.1412 28.2174V28.0036L58.5754 27.5522L58.2875 27.2604L57.5726 26.6699C57.2338 26.507 56.9085 26.3204 56.502 26.3204C56.1361 26.1609 55.7024 26.1167 55.3636 25.886L54.6487 25.55L53.9576 25.1055L53.673 24.8713L53.6323 24.6677L54.3912 24.8408L54.852 24.8136L54.8791 24.627L54.7843 24.4946L54.188 24.3351L53.5646 24.2469L53.0394 23.8397L53.1614 23.7514L54.0423 23.9143L54.3641 23.972C54.6623 24.0433 54.9604 24.1892 55.2857 24.1485L55.7837 23.9992L55.716 23.8702C55.0384 23.8125 54.4726 23.4935 53.8221 23.4087L53.1851 23.1576L53.4866 22.9981C53.8763 22.9574 54.2151 23.0863 54.5674 23.0863C55.2179 23.1576 55.7837 23.3748 56.3529 23.6225L57.0576 23.9585L57.2744 23.8397V23.6089L57.0983 23.463L56.502 23.015C56.1496 23.0863 55.9768 22.7266 55.6109 22.7945C55.0553 22.7266 54.5132 22.5501 53.9339 22.6078L53.2563 22.506L53.1614 22.3771L53.2563 22.2888L53.8085 22.2481C54.1067 22.2006 54.4048 22.2006 54.7165 22.1735C55.1773 22.1022 55.716 22.1293 56.1767 22.2176L56.258 22.1599V22.014C55.638 21.7391 54.9333 21.8986 54.2557 21.8375L53.4426 21.885L53.3613 21.7832L53.9576 21.4472C54.3099 21.247 54.7707 21.2165 55.0959 20.9552C55.4212 20.8092 55.7973 20.7957 56.1496 20.7685L56.8408 20.2731L56.895 20.1747L57.0746 19.8387L57.2202 19.5944L57.2609 19.3331H57.2744L57.288 19.143L57.3016 18.97L57.3422 18.505L57.3558 18.0401L57.3964 18.0265L57.3558 17.7211L57.3964 17.5481V16.9678L57.3693 16.9406C57.3558 16.6488 57.3693 16.2144 57.3558 15.8377L57.4235 15.6612L57.3964 15.3592L57.4235 14.8196L57.4506 14.443L57.4777 14.4294C57.4777 14.0663 57.4913 13.7337 57.5048 13.3842L57.4777 13.2281C57.3829 12.7258 57.4608 11.3548 57.3558 10.7779L57.3016 10.4556C57.3287 10.1366 57.2473 9.87526 57.2744 9.55626L57.2202 9.42731L57.2473 9.10831L57.2202 9.09474L57.1931 8.50087L57.1525 8.38549L57.0983 8.28368V7.94773L57.0746 7.93415L57.0305 7.50996L56.9356 7.30974L56.9085 7.0179L56.8679 6.71587L56.8408 6.33919V5.5994L56.8001 5.58582L56.8272 5.55528L56.8001 5.54171L56.8272 5.33809H56.8137L56.8001 4.8596L56.773 4.84264L56.7493 4.39809C56.5731 3.46825 56.5223 2.54182 56.2174 1.64252L56.0988 1.26585C55.9497 0.929886 55.9328 0.424248 55.6889 0.145973L55.4212 5.34058e-05L54.6996 0.162941L54.6216 0.322441L54.5132 0.43782L54.4048 0.624458L54.2964 0.753418L54.1202 1.06223L53.8763 1.5543L53.6459 2.04636L53.5104 2.27712L53.3613 2.55199L53.2698 2.67077L53.1851 2.79972C53.053 3.14925 52.765 3.38002 52.5787 3.68543L52.4533 3.90602L52.1856 4.30984C51.2539 6.06431 50.3832 7.82556 49.4786 9.57323L49.3838 9.74631L49.3295 9.92277C48.7841 12.3356 47.8761 13.9034 46.758 16.0854L46.7275 16.2144L46.6056 16.4146L46.6733 16.6047L46.7275 17.4191C46.9308 17.7347 47.2425 18.013 47.4729 18.3014L47.7575 18.6781C47.8896 19.1498 48.3436 19.5469 48.2996 20.0728V20.229L47.9608 20.0593L47.5136 19.7097C47.2561 19.4043 46.88 19.1566 46.4836 18.9971C46.3244 18.8546 46.1889 18.5322 45.8772 18.6781L45.7552 18.9089L45.6332 18.9971L45.4435 19.2448C45.806 19.6215 46.3244 19.8828 46.714 20.229L47.2425 20.6939L47.7575 21.2742L48.2047 21.5796L48.2454 21.7221L48.286 21.9257L48.2454 22.0275L48.137 22.1158L47.8659 21.9698L47.3238 21.5355L46.9613 21.2029C46.6632 20.9552 46.2973 20.8092 45.9856 20.5649L45.4943 20.6667L45.8196 20.9823C46.1211 21.247 46.5141 21.376 46.8224 21.6237L46.9173 21.8103L46.7716 21.7832C46.1448 21.7221 45.579 21.4947 44.9421 21.4201C44.6304 21.4337 44.4 21.2165 44.0747 21.2606C43.6987 21.057 43.2209 21.1724 42.8449 20.9823L42.7873 20.9145L42.6009 20.8092C42.1808 20.8805 41.7743 20.8669 41.344 20.8975L41.056 20.8398L40.5715 20.6192L40.5952 20.29C40.6494 19.8964 41.1644 20.1407 41.3677 19.8828C41.7912 19.8692 42.0724 19.5333 42.4925 19.5333L42.6009 19.3161L41.964 19.2448L41.9911 19.1837L42.1131 19.0684L42.7873 18.8071L42.7229 18.6781L42.4383 18.7222L41.9369 18.9258C41.5744 18.9089 41.2593 18.9835 40.8968 18.9971L40.6494 18.8376L40.3818 19.2041C40.2903 19.4247 40.5309 19.5502 40.3276 20.0864L40.2463 20.7074L39.8363 20.8092C39.406 20.8975 38.9724 20.8669 38.5523 20.9687L37.8509 21.0706L37.7256 20.6192L37.712 20.3613L37.7561 20.0728L37.7798 20.0593L37.7561 19.4484L37.7798 19.3602L37.7561 19.2584L37.7798 18.9971L37.8509 18.8681L37.878 18.6374L37.9018 18.3625L37.9289 18.1589L37.8882 18.0401L37.8204 17.7347L37.7425 17.5481L37.7256 17.1714L37.048 16.72L36.6177 16.3875C36.3162 15.8072 36.3636 15.4407 36.5093 14.8196L36.5635 14.6907L36.6584 14.504C36.865 13.9543 37.0717 13.4181 37.214 12.8514L37.2513 12.6037L37.4173 11.8469H37.4308L37.4444 11.7044L37.4952 11.4159C37.7595 10.5438 38.1186 9.73273 38.4066 8.87756L38.4845 8.68752L38.5116 8.54159C39.2739 6.39348 39.8939 5.79961 41.0052 4.04855L41.4897 3.45468L41.8149 3.14926L41.964 3.29179C42.1436 3.92638 42.2486 4.57793 42.3706 5.21931L42.3435 6.03377L42.3163 6.04735L42.3977 6.22381C42.479 6.8584 42.5569 7.4896 42.5874 8.12419L42.6009 8.62983C42.689 9.04384 42.7229 9.18637 42.7873 9.63092L42.8449 9.78703V10.2112L42.872 10.2248C42.8449 10.6015 42.9262 10.8933 42.8991 11.27L42.9262 11.4702L42.9906 11.6603V12.1829L42.9397 12.4272L42.9262 12.7903L42.8991 12.9057L42.872 13.2688L42.8449 13.2959L42.8313 13.6455L42.8449 14.0086L42.872 14.0968L42.9262 14.2258L42.9533 14.6635L42.9906 14.7925L43.0482 14.9215L43.0753 15.1692L43.1261 15.3151L43.1566 15.9395H43.143L43.1125 16.228L42.872 16.8083C42.6145 17.1408 42.235 17.4598 41.7336 17.4462L41.0323 17.7822L40.6799 18.1284L40.6494 18.3286L40.7172 18.4304L40.7308 18.651L40.8832 18.7392C41.178 18.651 41.4897 18.6068 41.7912 18.505L42.235 18.4168L42.7229 18.3286L42.0318 18.1114L41.7336 18.1284L41.7065 18.0401L42.3841 17.677C42.6823 17.487 42.9668 17.2868 43.2209 17.0424L43.3599 16.7947C43.6173 16.53 43.5326 15.9395 43.5225 15.5934V15.3456L43.4818 15.142L43.4242 14.9215V13.8355L43.4005 13.8219L43.3294 13.5878V12.7055L43.3734 12.6919V12.3729L43.4005 11.8333L43.3734 11.6738L43.3056 11.4566V10.4997L43.3294 10.4861L43.3056 10.3537C43.3768 9.55626 43.1566 8.7995 43.1261 8.02238L43.099 7.8052C42.9228 7.28938 43.0956 7.1231 42.8991 6.71587L42.872 6.36634L42.8042 6.16272C42.8449 5.84712 42.7636 5.58582 42.7873 5.25325L42.75 4.99195C42.645 3.67186 42.4282 3.74313 42.2621 2.79972L42.1944 2.61308L41.6116 2.5995L41.3304 2.91511L40.8832 3.33929L40.8392 3.39359L40.8155 3.55648L40.7308 3.69901L40.5444 3.94674L40.1751 4.54061L39.8939 4.89014C39.3688 5.35845 39.3315 5.92518 38.8097 6.55637L38.7826 6.71587L38.7013 6.90251C38.4235 7.83234 37.9323 8.62644 37.7256 9.49858L37.5765 9.80739L37.5528 9.96349L37.4681 10.1671L37.4037 10.2519C37.109 11.3209 36.7769 11.589 36.6584 12.8209L36.6177 13.1263L36.5635 13.2281C36.5228 14.0832 35.6691 15.2167 36.0079 16.0108L36.0756 16.1872L36.1569 16.3433L36.3331 16.6488C36.5364 16.9949 36.9836 17.0255 37.2953 17.2732L37.5765 17.5073L37.336 17.9824L36.926 17.8094C36.5093 17.7347 36.2247 17.4327 35.8859 17.2562L35.1134 16.9949L34.8187 17.1273L35.171 17.4327C35.4963 17.4598 35.8046 17.5752 36.0079 17.7958L35.7233 18.0707L35.52 18.3286L36.2789 18.3761C36.6313 18.4779 37.0785 18.4032 37.3597 18.6917L37.2953 18.9089L36.4415 18.9835L36.0383 19.1294L35.9808 19.2313L36.4788 19.2041L37.2275 19.2313L37.2648 19.5333L37.092 19.7233C36.7532 19.798 36.4009 19.8387 36.0756 19.9269L35.9808 20.1136L36.1705 20.1747L36.9565 19.9405L37.2377 20.0118V20.3036L36.9701 20.5921L36.3602 20.8975L35.6047 21.2029L35.049 21.5219L34.7374 21.549L34.7611 21.23L34.7882 21.057L34.7475 20.8669L34.6967 20.7074L34.3037 20.5038L33.6125 20.3749L33.5854 20.2425L33.5312 20.0423L33.2873 19.3738L33.2466 19.3025L33.1247 19.0684C33.0027 18.6374 32.6503 18.3897 32.3657 18.0842L31.8508 17.677C30.9766 16.5537 30.9529 16.0074 30.2279 14.9791L29.5774 14.3853C29.0624 14.1986 28.561 13.9509 28.2391 13.5301L28.212 13.3435L28.1849 13.1534L28.1172 12.9668L28.1036 12.529L28.0325 12.2847V12.2406L28.0596 11.9351L28.0087 11.7926L27.9511 11.6738L27.9003 11.4431L27.8292 11.3548L27.7513 11.0664L27.6835 10.9782L27.5988 10.761L27.4531 10.5302L27.382 10.2995L27.3718 10.1094L27.2905 9.96349L27.0601 9.35605L26.8162 8.93186L26.7484 8.73163L26.6942 8.54159L26.6264 8.41264L26.518 8.10723L26.4503 7.99524L26.1555 7.92058L25.9624 8.10723C25.61 8.62304 25.5389 10.4623 25.4101 10.9205L25.2746 10.9782L25.095 10.6626C24.8579 10.1399 24.6885 9.73612 24.5021 9.21012L24.204 8.81647L23.9872 8.86398L23.9194 9.05063L23.8652 9.3289L23.8245 9.51554L23.7703 9.84811L23.7161 10.0517L23.6755 10.7304L23.6484 10.7474V11.0664L23.5942 11.3548V12.0505L23.6213 12.0641L23.5942 12.1523V12.7326L23.6213 12.7496L23.6484 13.1975C23.7432 13.5165 23.8313 13.8186 23.9194 14.1409L23.8788 14.443C23.9194 14.8196 23.8381 15.142 23.8652 15.5187L23.8923 15.7495H23.9025V16.1872C23.1097 17.5922 23.3536 17.1951 23.1469 18.3761L23.1368 18.824L23.0927 18.8546L23.1368 19.0819C23.1436 19.5435 23.2486 20.0932 23.296 20.5921L23.3536 20.8262C23.3536 21.1588 23.3231 21.3454 23.3367 21.695L23.296 21.7085L23.2689 21.9257C23.1436 22.6044 23.0961 23.2967 23.3536 23.9585L23.462 24.4369H23.4722L23.5535 24.7424L23.7974 25.3193L23.9465 25.6247L24.1769 26.0455L23.8245 26.4663L23.5264 26.7989L23.3096 26.7412L23.296 26.7853L23.2147 26.7412L22.9301 26.9855L22.8623 26.7412L22.8928 26.4391L22.6896 26.3204L22.4456 26.6835L22.2932 27.0602L22.2118 27.2197C21.6528 27.6506 21.4631 28.5092 21.0227 29.1065L20.8736 29.3067L20.8194 29.4696C20.6432 29.9175 20.4026 30.3213 20.1994 30.7557L19.9825 31.1053L19.8877 31.37L19.7894 31.4989C19.044 32.5916 18.5867 33.8506 18.3969 35.1945L18.3292 35.3981L18.3021 35.8189H18.2885L18.2716 35.9648L18.2479 36.1073L18.1937 36.2397L18.1666 36.6164L18.0988 36.7453L17.6787 37.3392L17.2992 37.5598L16.7842 37.7905C16.1202 37.9059 15.5002 38.1672 14.8903 38.3844L14.6464 38.571C14.2127 38.588 13.9993 38.9206 13.7113 39.1378V39.1819L13.63 39.3142L13.6063 39.528L13.508 39.7181L13.4843 40.1694V40.4443L13.508 40.6343L13.5487 40.8481L13.5351 41.2418L13.3996 41.5336L13.1455 42.1546L13.0506 42.5449L13.0235 42.606L12.8067 43.0573L12.6271 43.0234L12.1698 43.0369V43.0234L11.7768 42.8367L11.2482 42.9521L11.2753 43.1557L11.4651 43.2575L12.207 43.4747L12.7491 43.736L12.8338 43.8955L12.9016 44.1568V44.6353L12.8711 44.7677L12.7796 44.8966C12.373 44.9509 11.9936 45.0697 11.6141 45.1579C11.1263 45.2869 10.7197 45.5346 10.2454 45.6907L9.48645 46.0402L9.47629 46.2303L9.5576 46.4339L10.2454 46.2303L11.089 45.8264C11.6277 45.6771 12.1156 45.3751 12.6983 45.314L12.7796 45.4464L12.8203 45.6228L12.7796 45.84L12.7254 45.969L12.6983 46.1285L12.6271 46.2438L12.5763 46.461L12.5492 46.6816L12.495 46.78L12.4239 46.9972L11.8852 47.3739L11.6819 47.6657L12.4001 47.5911L12.6983 47.8829L12.7254 48.2019L12.7796 48.3478L12.8338 48.5209L12.9016 48.6227L12.9287 48.9247L12.9795 49.0571L13.0235 49.2607L13.0744 49.3897L13.132 49.5661L13.2268 49.712L13.1591 49.9157C12.888 50.0446 12.5899 50.1736 12.2646 50.2041L11.7632 50.3908L11.5599 50.5672L11.5057 50.798L11.5599 51.1747L11.6006 51.3036L11.5599 51.3172L11.2753 51.7108L11.0449 52.2063L10.8586 52.5355L10.4758 53.0615L10.0421 53.2922L9.43563 53.8691L9.23235 54.1474L9.19169 54.2628L9.13748 54.3951L9.05278 54.5377L8.52764 54.989L8.33791 55.3385C8.20239 55.7559 7.73146 55.9154 7.52818 56.2785C7.42992 56.5975 7.02336 56.6247 6.88784 56.903C6.53888 57.1201 6.32204 57.4391 6.01034 57.6835L5.50892 58.0771L5.02443 58.3079L5.22432 58.6574L4.92957 59.0646C4.60432 59.2649 4.37393 59.5126 4.17065 59.8044L3.94027 60.0929L3.96398 60.2218L4.0724 60.585L4.02158 60.6732L3.53031 61.2365L3.38463 61.4401L3.15424 61.8168L3.11359 62.0204L3.18135 62.1358L3.15424 62.3835L2.86965 62.7874L2.70703 63.0521L2.55795 63.2659L2.5444 63.4695L2.47664 63.7308L2.39533 63.9921L1.88374 64.5859L1.77532 64.7488L1.71773 64.8914L1.31455 65.4717L1.16209 65.8212L1.13837 65.906L1.09772 66.1232L1.04012 66.2691L0.989301 66.4727L0.945255 66.8359L0.931704 67.3551L0.894437 67.4433L0.945255 67.6333L0.606455 68.0541C0.386234 68.7905 0.315084 68.6276 0.108415 69.1401L0.159237 69.2283C0.389622 69.6389 0.223608 70.7181 0.0135511 71.1423L0 71.4171L0.135521 71.5054L0.25749 71.2882L0.311698 71.0269L0.3388 70.7927L0.406562 70.6773L0.460769 70.5212L0.514977 70.2871L0.487875 69.7645L0.542082 69.605L0.606455 69.4149L0.691154 69.2419L0.867331 69.0111V68.8075L0.850391 68.6209L0.894437 68.4885L1.36537 67.9082L1.6669 67.5892L1.74483 67.4569V67.4026L1.51444 67.0089L1.59576 66.9512C1.94811 66.8359 2.27336 66.6017 2.66637 66.5746C3.04583 66.3981 3.46594 66.0078 3.92671 66.2556L4.61448 66.8053L4.76355 67.0259L4.82115 67.182L4.87197 67.3279L5.37339 67.8064L5.86127 67.7351L6.10521 67.3415L6.15942 67.1413L6.21362 66.9512L6.28139 66.7917V65.8212L6.23734 65.5565L6.21362 65.3563L6.18652 64.9932H6.15942V63.0521L6.10521 62.8756L6.03745 62.7161L6.01034 62.5736L5.79351 62.1799L4.98038 62.3394L4.84486 62.4582L4.14354 62.8349C3.85556 62.9774 3.65228 63.2828 3.33042 63.2998L3.45239 62.9503L3.56081 62.6584L3.61501 62.4412L3.63873 62.1663C3.94026 61.9797 4.1571 61.6879 4.4688 61.5012L4.51962 61.3689L4.22486 61.3383L4.02158 61.3824L4.0995 61.2535L4.61448 60.6732C5.00749 60.4831 5.15656 60.1336 5.45471 59.8757L5.56313 59.4685L5.22432 59.4413V59.3667C6.44401 58.3079 6.31526 57.6292 8.12108 56.4686L8.85289 55.7288C9.15104 55.7152 9.19169 55.4098 9.42208 55.3046C9.83881 54.799 10.5605 54.67 11.1127 54.2628C11.6141 53.9574 12.1833 53.8148 12.7796 53.6995L13.674 53.4653L14.1179 53.3771L14.145 53.6995L14.3516 53.7673C14.7684 54.0015 15.2562 54.2051 15.7814 54.161C16.0829 54.0456 16.5674 53.9879 16.7978 54.2322C17.1366 54.3205 17.3128 54.6089 17.6787 54.6564L18.2479 54.8465L18.8035 55.2775L19.2473 55.6677C19.4913 55.946 19.8978 56.0444 20.1147 56.3668L20.6466 56.7129L21.1175 56.9742C21.4563 57.1337 21.6867 57.4256 22.0526 57.5545L22.3372 57.4934L22.161 57.1201L21.4834 56.7706L20.6466 56.248C20.2908 56.0444 19.9385 55.8001 19.6708 55.5388L19.0305 54.989L18.3292 54.48C17.9768 54.4223 17.6651 54.2187 17.3263 54.1169C17.0587 54.032 16.8418 53.842 16.5403 53.7843L15.8661 53.7538L15.2698 53.4924C14.9581 53.5671 14.9445 53.2176 14.6735 53.1769C14.3347 53.1463 13.9688 53.1022 13.6164 53.1463C13.2539 53.1022 13.01 53.4517 12.6542 53.2922C12.3595 53.3058 12.102 53.4517 11.8174 53.4653C11.4379 53.6112 11.089 53.7538 10.7637 53.9879L10.2352 54.2628L9.66601 54.3951L9.69312 54.2051C9.8964 53.8284 10.3436 53.713 10.6384 53.3906L10.7637 53.3771L11.1262 52.9597L11.1805 52.7832L11.2482 52.6848L11.4922 52.3929L11.8581 51.8568L12.3459 51.3918L12.4679 51.1L12.6542 50.8251L12.7254 50.5672C12.9795 50.3331 13.3759 50.3466 13.6876 50.2313L13.752 50.1159L13.5487 49.7969L13.674 49.4032C13.3793 48.3037 12.8372 47.8015 12.9795 46.4033L13.0506 46.271L13.0744 46.0708L13.132 45.9113L13.1591 45.7246L13.2268 45.5617V45.2461L13.281 44.9984L13.3352 44.5471L13.3996 44.4045V44.0686L13.3352 43.8955L13.281 43.6919L13.3047 43.5154L13.3623 43.2406L13.3488 43.0709H13.3623L13.3759 42.8944C13.7621 42.2191 13.5521 42.3073 13.796 41.8221L14.1348 41.4013L14.0399 41.1094L13.9552 40.7633L13.918 40.0065L14.2534 39.1989L14.7277 39.0699L15.3342 39.4126C15.7306 39.4873 15.9203 39.864 16.1913 40.054L16.2591 40.1694L16.459 40.502L16.5539 40.7463L16.5166 40.8074V41.2418L16.6386 41.3741L16.9875 41.2587V40.6615L16.9062 40.4443L16.8418 40.2542L16.7199 40.0235C16.503 39.7622 16.2727 39.4873 15.9745 39.2973L15.7814 39.1378L15.2427 38.7781L15.7712 38.4421L15.9745 38.5168L15.9982 38.6593C16.3133 38.9952 16.6115 38.4285 16.9875 38.5303L17.0824 38.7204V38.8799L17.367 38.8934L18.2716 38.9511C18.6544 39.1683 18.0581 39.2396 18.1259 39.5009L18.8984 39.7486L18.8577 39.8776L18.7764 40.0065L18.8035 40.1389L19.2609 40.3018L19.4133 40.1694L19.0576 39.8233L19.1287 39.562L19.1525 39.545L19.1287 39.4466L18.6544 38.7916L18.5189 38.605L18.0717 38.4421L17.7464 38.1808L17.8006 37.777L18.5189 37.1967L18.7188 37.2985L18.9221 37.2238L18.9492 37.139L18.9797 36.6435L19.0305 36.5587L19.0576 36.3143L19.1287 36.0496L19.1525 35.8359L19.2101 35.7476L19.2473 35.5135L19.3049 35.3709L19.2609 35.1368L19.0576 35.2827L19.0068 35.4117L18.9797 35.6153L18.9221 35.7748L18.8035 36.2974L18.7357 36.484L18.7188 36.3551L18.7764 36.182V35.8019L18.8035 35.7883L18.8272 35.1945L18.8848 35.0214C19.0576 34.3834 19.0542 33.6572 19.454 33.121L19.6945 32.6561L19.9656 32.0045C20.5212 31.0476 21.0701 29.6664 21.6291 28.7705L21.8358 28.3802L22.012 28.2038L21.9984 28.5669L22.161 28.6958L22.3203 28.3802L22.5235 27.8882L22.6049 27.7253L22.7031 27.5828L22.9064 27.5115L23.1063 27.7389L23.418 27.5963L23.9194 26.9448L23.9736 26.8565L24.0278 26.7276L24.4208 26.3373L25.1933 26.4391L25.2306 26.507L25.3017 26.7853L25.7218 26.5952C25.9387 26.2627 26.247 26.0014 26.4909 25.6959C26.9246 25.3193 27.2905 24.9154 27.8156 24.627L27.9511 24.6541L28.4424 24.5795C28.7812 24.2639 29.2962 24.1485 29.6723 23.9008C29.9433 23.653 30.3634 23.5648 30.7022 23.3917C31.0004 23.2458 31.3527 23.2458 31.6339 23.1033C32.1489 22.9709 32.5419 22.6519 33.0162 22.4924C33.4092 22.4178 33.6938 22.1429 34.1106 22.1599C34.4934 22.0886 34.8458 21.8986 35.2354 21.8545C35.6047 21.8103 35.9401 21.6237 36.306 21.6814L36.8176 21.549C37.1428 21.3929 37.5121 21.4472 37.878 21.4065C38.1728 21.3047 38.5285 21.3183 38.8368 21.2606C39.2434 21.1147 39.6093 21.376 40.0159 21.3319C41.178 21.2029 42.3435 21.4065 43.4378 21.6101C43.885 21.7391 44.4 21.6814 44.8472 21.8239L45.186 21.8714L45.579 21.9257L45.7823 22.2006L45.7416 22.3499L46.1448 22.7266L45.6603 22.9709L45.6468 23.1169C45.928 23.3069 46.3379 23.1881 46.6733 23.2187L47.2832 23.2594L47.893 23.2322L48.0963 23.5207L48.3402 23.5648L48.4216 23.4359L48.4487 23.2187L48.5029 22.8827C48.7536 22.1192 48.6316 21.0706 48.7739 20.3749V19.7233C47.0392 16.0244 46.4972 18.0774 48.3267 14.2733L48.4216 14.0256C48.4419 13.2892 49.1703 12.5392 49.1771 11.9351L49.2211 11.6603L49.316 11.4872L49.3566 11.2259H49.3838L49.3939 11.1071C50.5425 7.62534 52.9344 4.09605 54.6758 0.929878L55.0553 0.424248L55.5804 0.481934L55.638 1.21833L55.6651 1.2319L55.7329 1.47964L55.8108 1.66967L55.8684 1.8156L55.9328 2.03278L55.9633 2.29408L56.0141 2.5995L56.0548 2.98976L56.109 3.20695V3.57005L56.1361 3.59721L56.1767 4.13338H56.1937L56.2174 4.61188C56.3089 4.80531 56.3766 5.30077 56.4613 5.42632V5.81998L56.4884 5.83355V7.06541L56.5189 7.09256L56.5426 7.28259L56.5968 7.42851L56.6409 7.63213L56.6917 7.99524V8.51445L56.7493 8.66037L56.7866 8.96579L56.8408 9.19655L56.8679 9.49858L56.9356 9.58681L56.895 9.67164L56.9356 9.99403L56.9492 10.8492L56.9898 10.8628L57.017 11.6603L57.0576 11.9826H57.0746L57.0441 12.0234C57.0305 12.7089 57.2101 13.4283 57.1525 13.8627L57.1389 14.4599L57.0983 14.4735V14.8061L57.0441 15.0402V15.4441L57.017 15.4576L56.9898 15.9395L57.017 16.3875V17.2155L56.9492 17.4055L56.9898 17.6193V17.9994L56.9492 18.0265V18.505L56.9356 18.824L56.8679 18.9971L56.8408 19.2855L56.7866 19.4926L56.6917 19.798C56.4342 20.2018 55.9057 20.3477 55.3941 20.3613C55.096 20.3477 54.8927 20.5785 54.6216 20.6192C54.3099 20.7685 53.944 20.7957 53.5951 20.8805C53.2427 21.0163 52.9446 21.2877 52.7514 21.5932L52.6871 21.7527C52.765 23.5886 51.8706 24.3725 51.8604 25.3498L52.0061 25.4822L52.3618 25.2209L52.4262 25.1055L52.4838 24.929L52.9683 25.058C53.3613 25.1462 53.6594 25.3634 53.944 25.5975C54.5132 25.9131 55.0384 26.3373 55.6889 26.4934L55.9328 26.5952C56.2445 26.6394 56.4884 26.8158 56.8001 26.8701C57.2067 27.1484 57.7454 27.2604 58.0706 27.6404L58.0334 27.8271L57.5726 27.9018L57.3422 28.0748L57.9385 28.4244L58.8871 28.9605C59.4123 29.1336 59.7816 29.5239 60.0763 29.9005L60.1441 30.0906L60.0357 30.1517C59.7646 30.0499 59.4665 29.9175 59.1548 29.9481L58.8871 30.1347L59.2632 30.3383C59.7917 30.4537 60.2932 30.715 60.632 31.0611L61.1605 31.5837L61.645 32.0928L62.0109 32.4966L62.3361 32.8597H62.4988L62.3904 32.5848Z" fill="white"/>
<path d="M26.0029 18.207L26.0571 18.2952L26.0707 18.6855L26.0842 18.9162L26.0571 18.9468L25.7183 19.0486L25.5963 18.9604L25.5286 18.8144L25.4066 18.4106L25.5049 18.2952V18.2477L25.6506 18.1798L26.0029 18.207Z" fill="white"/>
</g>
<defs>
<clipPath id="clip0_257087_1527">
<rect width="166" height="80" fill="white"/>
</clipPath>
</defs>
</svg>
